<svg width="224" height="44" viewBox="0 0 224 44" fill="none" xmlns="http://www.w3.org/2000/svg">
<path d="M151.938 14.97C150.345 14.97 149.043 15.48 148.021 16.5C146.999 17.52 146.489 19.06 146.489 21.12V34.04H142.191V11.39H146.489V14.09C146.619 13.89 146.729 13.67 146.869 13.48C148.212 11.76 150.135 10.91 152.649 10.91C153.791 10.91 154.833 11.11 155.755 11.51C156.406 11.79 157.017 12.21 157.608 12.75L155.504 16.39C155.034 15.89 154.513 15.53 153.942 15.3C153.371 15.08 152.699 14.97 151.938 14.97ZM132.414 1.91H132.344L128.116 4.35V11.4H122.526V15.31H128.116V34.04H132.414V15.3H138.004V11.39H132.414V1.91ZM193.772 1.91H193.722L189.474 4.36V11.4H183.885V15.31H189.474V34.04H193.772V15.3H199.362V11.39H193.772V1.91ZM175.91 24.36C175.91 26.24 175.43 27.71 174.478 28.77C173.526 29.84 172.204 30.37 170.511 30.37C169.399 30.37 168.427 30.13 167.596 29.66C166.764 29.19 166.143 28.49 165.712 27.59C165.282 26.68 165.071 25.61 165.071 24.37V11.4H160.774V24.56C160.774 26.53 161.184 28.26 162.016 29.76C162.847 31.25 163.999 32.42 165.482 33.26C166.965 34.1 168.638 34.52 170.521 34.52C172.404 34.52 174.107 34.1 175.56 33.26C177.012 32.42 178.144 31.25 178.976 29.76C179.807 28.27 180.218 26.53 180.218 24.56V11.4H175.92V24.37L175.91 24.36ZM222.753 15.25C221.992 13.88 220.95 12.82 219.628 12.06C218.305 11.3 216.783 10.92 215.07 10.92C213.357 10.92 211.804 11.31 210.441 12.09C209.41 12.68 208.548 13.42 207.867 14.32V0H203.569V34.04H207.867V20.84C207.867 19.7 208.117 18.68 208.628 17.79C209.139 16.9 209.84 16.2 210.732 15.69C211.623 15.18 212.645 14.93 213.787 14.93C215.51 14.93 216.913 15.49 217.995 16.6C219.077 17.71 219.618 19.13 219.618 20.84V34.04H223.915V19.98C223.915 18.2 223.534 16.63 222.773 15.26L222.753 15.25ZM119.09 19.97V34.03H114.793V20.83C114.793 19.11 114.252 17.7 113.17 16.59C112.088 15.48 110.685 14.92 108.962 14.92C107.82 14.92 106.798 15.17 105.907 15.68C105.015 16.19 104.314 16.89 103.803 17.78C103.292 18.67 103.042 19.69 103.042 20.83V34.03H98.7443V11.39H103.042V14.31C103.733 13.41 104.585 12.66 105.616 12.08C106.989 11.3 108.532 10.91 110.245 10.91C111.958 10.91 113.48 11.34 114.803 12.2C116.125 13.06 117.167 14.18 117.928 15.56C118.689 16.94 119.07 18.41 119.07 19.97H119.09ZM18.5227 11.39H22.8203V33.13C22.8203 35.29 22.3194 37.18 21.3176 38.8C20.3159 40.42 18.9134 41.69 17.1102 42.61C15.307 43.53 13.2334 43.99 10.8792 43.99C8.52504 43.99 6.49146 43.56 4.69829 42.7C2.89511 41.84 1.46258 40.64 0.380673 39.08L3.14555 36.27C4.06718 37.45 5.16912 38.34 6.44137 38.96C7.71361 39.58 9.22628 39.89 10.9794 39.89C13.3035 39.89 15.1467 39.28 16.4991 38.05C17.8515 36.83 18.5327 35.18 18.5327 33.12V30.08C17.7613 31.13 16.7796 31.98 15.5675 32.59C14.1951 33.29 12.6423 33.64 10.8892 33.64C8.81556 33.64 6.96229 33.15 5.32941 32.16C3.68651 31.18 2.39423 29.82 1.43253 28.08C0.480849 26.35 0 24.4 0 22.24C0 20.08 0.480849 18.15 1.43253 16.45C2.38421 14.75 3.68651 13.4 5.32941 12.4C6.97231 11.4 8.82558 10.9 10.8892 10.9C12.6724 10.9 14.2451 11.25 15.6176 11.95C16.7996 12.55 17.7613 13.38 18.5327 14.4V11.38L18.5227 11.39ZM18.7531 22.31C18.7531 20.85 18.4626 19.57 17.8715 18.47C17.2805 17.37 16.459 16.52 15.4072 15.9C14.3553 15.28 13.1131 14.97 11.6806 14.97C10.2481 14.97 8.98586 15.28 7.90395 15.9C6.82204 16.52 5.97054 17.38 5.34944 18.47C4.72834 19.57 4.4178 20.83 4.4178 22.26C4.4178 23.69 4.72834 24.96 5.34944 26.07C5.97054 27.18 6.83206 28.05 7.92398 28.67C9.02593 29.29 10.2882 29.6 11.7207 29.6C13.1532 29.6 14.3553 29.3 15.4172 28.69C16.4791 28.09 17.3005 27.24 17.8816 26.14C18.4526 25.04 18.7431 23.76 18.7431 22.3L18.7531 22.31ZM92.7036 16.3C93.6152 17.99 94.066 19.89 94.066 22.02C94.066 22.34 94.046 22.68 94.0159 23.04C93.9859 23.41 93.9157 23.83 93.8256 24.3H76.0742C76.2245 25.17 76.485 25.98 76.8656 26.71C77.5068 27.9 78.4084 28.82 79.5904 29.47C80.7725 30.12 82.1249 30.45 83.6476 30.45C84.9199 30.45 86.0919 30.23 87.1538 29.78C88.2157 29.33 89.1373 28.67 89.8986 27.78L92.6735 30.59C91.5916 31.86 90.2593 32.83 88.6865 33.5C87.1137 34.17 85.4308 34.5 83.6476 34.5C81.3836 34.5 79.35 33.98 77.5368 32.95C75.7236 31.92 74.2911 30.51 73.2392 28.73C72.1874 26.95 71.6665 24.93 71.6665 22.68C71.6665 20.43 72.1874 18.45 73.2192 16.67C74.251 14.89 75.6535 13.48 77.4266 12.45C79.1898 11.42 81.1732 10.9 83.3671 10.9C85.561 10.9 87.3241 11.38 88.9269 12.33C90.5398 13.28 91.792 14.6 92.7036 16.29V16.3ZM89.8586 20.74C89.7384 19.8 89.508 18.96 89.1373 18.24C88.5964 17.18 87.835 16.35 86.8432 15.76C85.8515 15.17 84.6594 14.88 83.2569 14.88C81.8544 14.88 80.5021 15.2 79.3901 15.83C78.2781 16.47 77.4166 17.36 76.8156 18.5C76.4649 19.17 76.2245 19.93 76.0742 20.74H89.8485H89.8586ZM67.1084 16.3C68.02 17.99 68.4708 19.89 68.4708 22.02C68.4708 22.34 68.4508 22.68 68.4207 23.04C68.3907 23.41 68.3206 23.83 68.2304 24.3H50.4891C50.6394 25.17 50.8998 25.98 51.2805 26.71C51.9216 27.9 52.8232 28.82 54.0053 29.47C55.1874 30.12 56.5398 30.45 58.0625 30.45C59.3347 30.45 60.5068 30.23 61.5686 29.78C62.6305 29.33 63.5521 28.67 64.3135 27.78L67.0784 30.59C65.9965 31.86 64.6641 32.83 63.0913 33.5C61.5186 34.17 59.8356 34.5 58.0524 34.5C55.7884 34.5 53.7549 33.98 51.9417 32.95C50.1285 31.92 48.6959 30.51 47.6441 28.73C46.5922 26.95 46.0713 24.93 46.0713 22.68C46.0713 20.43 46.5922 18.45 47.624 16.67C48.6559 14.89 50.0583 13.48 51.8214 12.45C53.5846 11.42 55.5681 10.9 57.7719 10.9C59.9758 10.9 61.7289 11.38 63.3318 12.33C64.9446 13.28 66.1968 14.6 67.1084 16.29V16.3ZM64.2734 20.74C64.1532 19.8 63.9228 18.96 63.5521 18.24C63.0112 17.18 62.2499 16.35 61.2581 15.76C60.2664 15.17 59.0742 14.88 57.6718 14.88C56.2693 14.88 54.9169 15.2 53.805 15.83C52.693 16.47 51.8315 17.36 51.2304 18.5C50.8798 19.17 50.6394 19.93 50.4891 20.74H64.2734ZM44.5386 12.75C43.9476 12.21 43.3365 11.79 42.6853 11.51C41.7637 11.11 40.7319 10.91 39.5798 10.91C37.0654 10.91 35.142 11.77 33.7996 13.48C33.6494 13.67 33.5492 13.89 33.419 14.09V11.38H29.1214V34.02H33.419V21.1C33.419 19.03 33.9299 17.49 34.9517 16.48C35.9735 15.46 37.2758 14.95 38.8686 14.95C39.6299 14.95 40.3011 15.06 40.8721 15.28C41.4431 15.5 41.9641 15.86 42.4349 16.37L44.5386 12.73V12.75Z" fill="#142D21"/>
</svg>
