<svg width="120" height="110" viewBox="0 0 120 110" fill="none" xmlns="http://www.w3.org/2000/svg">
<g opacity="0.6">
<path opacity="0.8" d="M95.845 24.18C78.545 3.94 40.455 3.94 23.155 24.18C21.615 25.89 21.615 28.59 23.155 30.29C31.835 40 45.095 45.58 59.505 45.58C73.915 45.58 87.165 40.01 95.855 30.29C97.395 28.58 97.395 25.88 95.855 24.18H95.845ZM47.055 40.27C38.705 38.13 31.355 33.84 25.935 27.78C25.655 27.48 25.655 26.99 25.935 26.69C31.355 20.63 38.705 16.34 47.055 14.2C39.725 20.72 39.725 33.75 47.055 40.27ZM59.495 38.29C53.415 38.29 48.495 33.37 48.495 27.29C48.495 21.21 53.415 16.29 59.495 16.29C65.575 16.29 70.495 21.21 70.495 27.29C70.495 33.37 65.575 38.29 59.495 38.29ZM93.045 27.78C87.625 33.84 80.275 38.13 71.925 40.27C79.255 33.75 79.255 20.72 71.925 14.2C80.275 16.34 87.625 20.63 93.045 26.69C93.325 26.99 93.325 27.48 93.045 27.78Z" fill="#7A7E70"/>
<path opacity="0.8" d="M59.4961 33.79C63.0859 33.79 65.9961 30.8799 65.9961 27.29C65.9961 23.7002 63.0859 20.79 59.4961 20.79C55.9062 20.79 52.9961 23.7002 52.9961 27.29C52.9961 30.8799 55.9062 33.79 59.4961 33.79Z" fill="#7A7E70"/>
</g>
<path d="M15.9342 86V84.512H17.0542L21.0702 73.84H23.3422L27.3902 84.512H28.4942V86H23.6942V84.512H25.4062L24.5262 82.128H19.7422L18.8622 84.512H20.4782V86H15.9342ZM20.2382 80.752H24.0142L22.1262 75.68L20.2382 80.752ZM33.2167 86.256C32.3314 86.256 31.5687 86.08 30.9287 85.728C30.2887 85.376 29.798 84.88 29.4567 84.24C29.1154 83.5893 28.9447 82.832 28.9447 81.968C28.9447 81.1467 29.094 80.4213 29.3927 79.792C29.6914 79.1627 30.1127 78.672 30.6567 78.32C31.2114 77.9573 31.862 77.776 32.6087 77.776C33.1954 77.776 33.6967 77.8933 34.1127 78.128C34.5287 78.3627 34.838 78.6453 35.0407 78.976V78.032H36.3367V81.456H34.9767V81.216C34.9767 80.6613 34.8007 80.208 34.4487 79.856C34.1074 79.4933 33.622 79.312 32.9927 79.312C32.2567 79.312 31.686 79.5573 31.2807 80.048C30.886 80.5387 30.6887 81.1733 30.6887 81.952C30.6887 82.7733 30.9287 83.44 31.4087 83.952C31.8887 84.4533 32.534 84.704 33.3447 84.704C33.8887 84.704 34.326 84.608 34.6567 84.416C34.998 84.2133 35.27 83.9893 35.4727 83.744L36.4807 84.8C36.15 85.2373 35.6967 85.5893 35.1207 85.856C34.5554 86.1227 33.9207 86.256 33.2167 86.256ZM42.9099 84.288L43.4539 85.536C43.2513 85.7067 42.9846 85.8507 42.6539 85.968C42.3233 86.0853 41.9499 86.144 41.5339 86.144C40.6486 86.144 39.9606 85.8987 39.4699 85.408C38.9899 84.9173 38.7499 84.1813 38.7499 83.2V79.456H37.4059V78.032H38.7499V76.032L40.4459 75.616V78.032H42.8139V79.456H40.4459V83.088C40.4459 84.1227 40.8993 84.64 41.8059 84.64C42.0193 84.64 42.2219 84.608 42.4139 84.544C42.6166 84.4693 42.7819 84.384 42.9099 84.288ZM45.9826 76.32C45.5879 76.32 45.2892 76.2133 45.0866 76C44.8839 75.776 44.7826 75.4987 44.7826 75.168C44.7826 74.8373 44.8839 74.5653 45.0866 74.352C45.2892 74.128 45.5879 74.016 45.9826 74.016C46.3772 74.016 46.6759 74.128 46.8786 74.352C47.0812 74.5653 47.1826 74.8373 47.1826 75.168C47.1826 75.4987 47.0812 75.776 46.8786 76C46.6759 76.2133 46.3772 76.32 45.9826 76.32ZM44.2866 86V84.576H45.3746V79.456H44.2866V78.032H47.0706V84.576H48.1586V86H44.2866ZM53.5303 86.256C52.6663 86.256 51.909 86.08 51.2583 85.728C50.6183 85.376 50.117 84.88 49.7543 84.24C49.3916 83.6 49.2103 82.8587 49.2103 82.016C49.2103 81.1733 49.3916 80.432 49.7543 79.792C50.117 79.152 50.6183 78.656 51.2583 78.304C51.909 77.952 52.6663 77.776 53.5303 77.776C54.3943 77.776 55.1463 77.952 55.7863 78.304C56.437 78.656 56.9436 79.152 57.3063 79.792C57.669 80.432 57.8503 81.1733 57.8503 82.016C57.8503 82.8587 57.669 83.6 57.3063 84.24C56.9436 84.88 56.437 85.376 55.7863 85.728C55.1463 86.08 54.3943 86.256 53.5303 86.256ZM53.5303 84.704C54.3196 84.704 54.9436 84.4587 55.4023 83.968C55.8716 83.4773 56.1063 82.8267 56.1063 82.016C56.1063 81.2053 55.8716 80.5547 55.4023 80.064C54.9436 79.5733 54.3196 79.328 53.5303 79.328C52.741 79.328 52.1116 79.5733 51.6423 80.064C51.1836 80.5547 50.9543 81.2053 50.9543 82.016C50.9543 82.8267 51.1836 83.4773 51.6423 83.968C52.1116 84.4587 52.741 84.704 53.5303 84.704ZM67.6762 84.576H68.7642V86H64.6522V84.576H65.9802V81.392C65.9802 80.016 65.3349 79.328 64.0442 79.328C63.3295 79.328 62.7802 79.52 62.3962 79.904C62.0229 80.2773 61.8362 80.8267 61.8362 81.552V84.576H63.1642V86H59.0522V84.576H60.1402V79.456H59.0522V78.032H61.7402V79.184C61.9855 78.736 62.3429 78.3893 62.8122 78.144C63.2922 77.8987 63.8682 77.776 64.5402 77.776C66.6309 77.776 67.6762 78.8693 67.6762 81.056V84.576ZM73.5518 86.256C72.7838 86.256 72.1065 86.08 71.5198 85.728C70.9331 85.3653 70.4745 84.8693 70.1438 84.24C69.8131 83.6 69.6478 82.8587 69.6478 82.016C69.6478 81.184 69.8131 80.4533 70.1438 79.824C70.4745 79.184 70.9331 78.6827 71.5198 78.32C72.1065 77.9573 72.7891 77.776 73.5678 77.776C74.2185 77.776 74.7838 77.9093 75.2638 78.176C75.7438 78.432 76.1118 78.8 76.3678 79.28V78.032H79.1518V79.456H78.0638V84.576H79.1518V86H76.4478V84.688C76.1705 85.1893 75.7811 85.5787 75.2798 85.856C74.7891 86.1227 74.2131 86.256 73.5518 86.256ZM73.9198 84.704C74.6878 84.704 75.3011 84.464 75.7598 83.984C76.2185 83.4933 76.4478 82.8373 76.4478 82.016C76.4478 81.1947 76.2185 80.544 75.7598 80.064C75.3011 79.5733 74.6878 79.328 73.9198 79.328C73.1518 79.328 72.5385 79.5733 72.0798 80.064C71.6211 80.544 71.3918 81.1947 71.3918 82.016C71.3918 82.8373 71.6211 83.4933 72.0798 83.984C72.5491 84.464 73.1625 84.704 73.9198 84.704ZM85.8229 86.256C85.1509 86.256 84.5536 86.1227 84.0309 85.856C83.5189 85.5893 83.1456 85.2213 82.9109 84.752V86H80.2229V84.576H81.3109V74.784H80.1909V73.36H83.0069V79.216C83.2629 78.7787 83.6416 78.432 84.1429 78.176C84.6549 77.9093 85.2363 77.776 85.8869 77.776C86.6549 77.776 87.3269 77.9573 87.9029 78.32C88.4789 78.6827 88.9269 79.184 89.2469 79.824C89.5669 80.464 89.7269 81.1947 89.7269 82.016C89.7269 82.8373 89.5669 83.568 89.2469 84.208C88.9269 84.848 88.4736 85.3493 87.8869 85.712C87.3003 86.0747 86.6123 86.256 85.8229 86.256ZM85.4549 84.704C86.2229 84.704 86.8363 84.464 87.2949 83.984C87.7536 83.4933 87.9829 82.8373 87.9829 82.016C87.9829 81.1947 87.7536 80.544 87.2949 80.064C86.8363 79.5733 86.2229 79.328 85.4549 79.328C84.6869 79.328 84.0736 79.5733 83.6149 80.064C83.1563 80.544 82.9269 81.1947 82.9269 82.016C82.9269 82.8373 83.1563 83.4933 83.6149 83.984C84.0736 84.464 84.6869 84.704 85.4549 84.704ZM90.8792 86V84.576H91.9672V74.784H90.8472V73.36H93.6632V84.576H94.7512V86H90.8792ZM100.219 86.256C99.2913 86.256 98.502 86.0747 97.8513 85.712C97.2006 85.3493 96.6993 84.848 96.3473 84.208C96.006 83.568 95.8353 82.832 95.8353 82C95.8353 81.1253 96.0006 80.3733 96.3313 79.744C96.6726 79.1147 97.142 78.6293 97.7393 78.288C98.3473 77.9467 99.062 77.776 99.8833 77.776C101.035 77.776 101.942 78.1173 102.603 78.8C103.265 79.472 103.595 80.4213 103.595 81.648C103.595 81.7547 103.59 81.8933 103.579 82.064C103.569 82.224 103.553 82.3573 103.531 82.464H97.5953C97.6806 83.1467 97.958 83.7013 98.4273 84.128C98.8966 84.544 99.5473 84.752 100.379 84.752C100.902 84.752 101.345 84.6667 101.707 84.496C102.081 84.3253 102.374 84.112 102.587 83.856L103.547 84.944C103.217 85.328 102.763 85.6427 102.187 85.888C101.611 86.1333 100.955 86.256 100.219 86.256ZM99.8673 79.232C99.2593 79.232 98.7526 79.4133 98.3473 79.776C97.9526 80.128 97.7073 80.592 97.6113 81.168H101.915C101.851 80.6027 101.649 80.1387 101.307 79.776C100.966 79.4133 100.486 79.232 99.8673 79.232ZM29.1658 106L25.0378 95.328H23.9498V93.84H28.8298V95.328H27.1178L30.3498 103.952L33.6458 95.328H31.9338V93.84H36.7018V95.328H35.6138L31.4378 106H29.1658ZM39.0763 96.32C38.6816 96.32 38.383 96.2133 38.1803 96C37.9776 95.776 37.8763 95.4987 37.8763 95.168C37.8763 94.8373 37.9776 94.5653 38.1803 94.352C38.383 94.128 38.6816 94.016 39.0763 94.016C39.471 94.016 39.7696 94.128 39.9723 94.352C40.175 94.5653 40.2763 94.8373 40.2763 95.168C40.2763 95.4987 40.175 95.776 39.9723 96C39.7696 96.2133 39.471 96.32 39.0763 96.32ZM37.3803 106V104.576H38.4683V99.456H37.3803V98.032H40.1643V104.576H41.2523V106H37.3803ZM46.3841 106.256C45.8294 106.256 45.3174 106.171 44.8481 106C44.3787 105.829 44.0161 105.568 43.7601 105.216V106H42.4321V103.232H43.7761V103.36C43.7761 103.829 43.9681 104.213 44.3521 104.512C44.7467 104.8 45.2907 104.944 45.9841 104.944C46.4854 104.944 46.8854 104.869 47.1841 104.72C47.4934 104.56 47.6481 104.293 47.6481 103.92C47.6481 103.568 47.4934 103.317 47.1841 103.168C46.8747 103.019 46.3467 102.875 45.6001 102.736L44.9921 102.624C44.0534 102.443 43.3867 102.139 42.9921 101.712C42.5974 101.285 42.4001 100.779 42.4001 100.192C42.4001 99.424 42.6774 98.832 43.2321 98.416C43.7974 97.9893 44.5121 97.776 45.3761 97.776C45.9201 97.776 46.3947 97.8613 46.8001 98.032C47.2054 98.2027 47.5201 98.432 47.7441 98.72V98.032H49.0401V100.752H47.7281V100.592C47.7281 100.123 47.5521 99.7547 47.2001 99.488C46.8587 99.2213 46.3787 99.088 45.7601 99.088C45.2907 99.088 44.9014 99.1733 44.5921 99.344C44.2827 99.504 44.1281 99.7707 44.1281 100.144C44.1281 100.453 44.2667 100.688 44.5441 100.848C44.8214 100.997 45.3334 101.136 46.0801 101.264L46.8481 101.392C47.7547 101.541 48.4001 101.819 48.7841 102.224C49.1787 102.629 49.3761 103.163 49.3761 103.824C49.3761 104.635 49.1041 105.243 48.5601 105.648C48.0161 106.053 47.2907 106.256 46.3841 106.256ZM52.3576 96.32C51.9629 96.32 51.6642 96.2133 51.4616 96C51.2589 95.776 51.1576 95.4987 51.1576 95.168C51.1576 94.8373 51.2589 94.5653 51.4616 94.352C51.6642 94.128 51.9629 94.016 52.3576 94.016C52.7522 94.016 53.0509 94.128 53.2536 94.352C53.4562 94.5653 53.5576 94.8373 53.5576 95.168C53.5576 95.4987 53.4562 95.776 53.2536 96C53.0509 96.2133 52.7522 96.32 52.3576 96.32ZM50.6616 106V104.576H51.7496V99.456H50.6616V98.032H53.4456V104.576H54.5336V106H50.6616ZM61.0573 106.256C60.3853 106.256 59.788 106.123 59.2653 105.856C58.7533 105.589 58.38 105.221 58.1453 104.752V106H55.4573V104.576H56.5453V94.784H55.4253V93.36H58.2413V99.216C58.4973 98.7787 58.876 98.432 59.3773 98.176C59.8893 97.9093 60.4706 97.776 61.1213 97.776C61.8893 97.776 62.5613 97.9573 63.1373 98.32C63.7133 98.6827 64.1613 99.184 64.4813 99.824C64.8013 100.464 64.9613 101.195 64.9613 102.016C64.9613 102.837 64.8013 103.568 64.4813 104.208C64.1613 104.848 63.708 105.349 63.1213 105.712C62.5346 106.075 61.8466 106.256 61.0573 106.256ZM60.6893 104.704C61.4573 104.704 62.0706 104.464 62.5293 103.984C62.988 103.493 63.2173 102.837 63.2173 102.016C63.2173 101.195 62.988 100.544 62.5293 100.064C62.0706 99.5733 61.4573 99.328 60.6893 99.328C59.9213 99.328 59.308 99.5733 58.8493 100.064C58.3906 100.544 58.1613 101.195 58.1613 102.016C58.1613 102.837 58.3906 103.493 58.8493 103.984C59.308 104.464 59.9213 104.704 60.6893 104.704ZM67.8576 96.32C67.4629 96.32 67.1642 96.2133 66.9616 96C66.7589 95.776 66.6576 95.4987 66.6576 95.168C66.6576 94.8373 66.7589 94.5653 66.9616 94.352C67.1642 94.128 67.4629 94.016 67.8576 94.016C68.2522 94.016 68.5509 94.128 68.7536 94.352C68.9562 94.5653 69.0576 94.8373 69.0576 95.168C69.0576 95.4987 68.9562 95.776 68.7536 96C68.5509 96.2133 68.2522 96.32 67.8576 96.32ZM66.1616 106V104.576H67.2496V99.456H66.1616V98.032H68.9456V104.576H70.0336V106H66.1616ZM70.9573 106V104.576H72.0453V94.784H70.9253V93.36H73.7413V104.576H74.8293V106H70.9573ZM77.5294 96.32C77.1348 96.32 76.8361 96.2133 76.6334 96C76.4308 95.776 76.3294 95.4987 76.3294 95.168C76.3294 94.8373 76.4308 94.5653 76.6334 94.352C76.8361 94.128 77.1348 94.016 77.5294 94.016C77.9241 94.016 78.2228 94.128 78.4254 94.352C78.6281 94.5653 78.7294 94.8373 78.7294 95.168C78.7294 95.4987 78.6281 95.776 78.4254 96C78.2228 96.2133 77.9241 96.32 77.5294 96.32ZM75.8334 106V104.576H76.9214V99.456H75.8334V98.032H78.6174V104.576H79.7054V106H75.8334ZM85.9412 104.288L86.4852 105.536C86.2825 105.707 86.0159 105.851 85.6852 105.968C85.3545 106.085 84.9812 106.144 84.5652 106.144C83.6799 106.144 82.9919 105.899 82.5012 105.408C82.0212 104.917 81.7812 104.181 81.7812 103.2V99.456H80.4372V98.032H81.7812V96.032L83.4772 95.616V98.032H85.8452V99.456H83.4772V103.088C83.4772 104.123 83.9305 104.64 84.8372 104.64C85.0505 104.64 85.2532 104.608 85.4452 104.544C85.6479 104.469 85.8132 104.384 85.9412 104.288ZM87.9813 109.92C87.64 109.92 87.3413 109.883 87.0853 109.808C86.8293 109.744 86.6106 109.653 86.4293 109.536L86.9573 108.176C87.064 108.219 87.1973 108.261 87.3573 108.304C87.528 108.347 87.72 108.368 87.9333 108.368C88.424 108.368 88.8506 108.24 89.2133 107.984C89.5866 107.728 89.9173 107.323 90.2053 106.768L90.5093 106.176L87.5653 99.456H86.6373V98.032H90.6533V99.456H89.4213L91.4053 104.208L93.4213 99.456H92.1733V98.032H96.0453V99.456H95.1173L92.0293 106.4C91.4853 107.627 90.904 108.517 90.2853 109.072C89.6666 109.637 88.8986 109.92 87.9813 109.92Z" fill="#7A7E70"/>
</svg>
