<svg width="120" height="110" viewBox="0 0 120 110" fill="none" xmlns="http://www.w3.org/2000/svg">
<g opacity="0.6">
<path fill-rule="evenodd" clip-rule="evenodd" d="M81.8609 29.64C80.2609 38.66 72.9209 46.64 60.0409 53.34C48.0109 47.06 40.7509 39.46 38.4709 30.74C37.7909 28.13 38.0209 14.77 38.1109 9.66L60.1609 0L82.2009 9.66C82.3609 17.16 82.4709 26.19 81.8609 29.64Z" fill="#7A7E70"/>
</g>
<path d="M20.317 86V84.512H21.437L25.453 73.84H27.725L31.773 84.512H32.877V86H28.077V84.512H29.789L28.909 82.128H24.125L23.245 84.512H24.861V86H20.317ZM24.621 80.752H28.397L26.509 75.68L24.621 80.752ZM41.393 84.576H42.481V86H39.777V85.008C39.5637 85.4027 39.2223 85.712 38.753 85.936C38.2943 86.1493 37.7397 86.256 37.089 86.256C35.0303 86.256 34.001 85.1573 34.001 82.96V79.456H32.913V78.032H35.697V82.64C35.697 84.016 36.3157 84.704 37.553 84.704C38.2357 84.704 38.7637 84.528 39.137 84.176C39.5103 83.824 39.697 83.3493 39.697 82.752V79.456H38.465V78.032H41.393V84.576ZM47.2471 86.256C46.4791 86.256 45.8018 86.08 45.2151 85.728C44.6285 85.3653 44.1698 84.8693 43.8391 84.24C43.5085 83.6 43.3431 82.8587 43.3431 82.016C43.3431 81.184 43.5085 80.4533 43.8391 79.824C44.1698 79.184 44.6285 78.6827 45.2151 78.32C45.8018 77.9573 46.4791 77.776 47.2471 77.776C47.8978 77.776 48.4631 77.904 48.9431 78.16C49.4338 78.416 49.8071 78.7787 50.0631 79.248V74.784H48.6871V73.36H51.7591V84.576H52.8471V86H50.1431V84.688C49.8658 85.1893 49.4765 85.5787 48.9751 85.856C48.4845 86.1227 47.9085 86.256 47.2471 86.256ZM47.6151 84.704C48.3831 84.704 48.9965 84.464 49.4551 83.984C49.9138 83.4933 50.1431 82.8373 50.1431 82.016C50.1431 81.1947 49.9138 80.544 49.4551 80.064C48.9965 79.5733 48.3831 79.328 47.6151 79.328C46.8471 79.328 46.2338 79.5733 45.7751 80.064C45.3165 80.544 45.0871 81.1947 45.0871 82.016C45.0871 82.8373 45.3165 83.4933 45.7751 83.984C46.2445 84.464 46.8578 84.704 47.6151 84.704ZM55.5529 76.32C55.1582 76.32 54.8595 76.2133 54.6569 76C54.4542 75.776 54.3529 75.4987 54.3529 75.168C54.3529 74.8373 54.4542 74.5653 54.6569 74.352C54.8595 74.128 55.1582 74.016 55.5529 74.016C55.9475 74.016 56.2462 74.128 56.4489 74.352C56.6515 74.5653 56.7529 74.8373 56.7529 75.168C56.7529 75.4987 56.6515 75.776 56.4489 76C56.2462 76.2133 55.9475 76.32 55.5529 76.32ZM53.8569 86V84.576H54.9449V79.456H53.8569V78.032H56.6409V84.576H57.7289V86H53.8569ZM63.9646 84.288L64.5086 85.536C64.306 85.7067 64.0393 85.8507 63.7086 85.968C63.378 86.0853 63.0046 86.144 62.5886 86.144C61.7033 86.144 61.0153 85.8987 60.5246 85.408C60.0446 84.9173 59.8046 84.1813 59.8046 83.2V79.456H58.4606V78.032H59.8046V76.032L61.5006 75.616V78.032H63.8686V79.456H61.5006V83.088C61.5006 84.1227 61.954 84.64 62.8606 84.64C63.074 84.64 63.2766 84.608 63.4686 84.544C63.6713 84.4693 63.8366 84.384 63.9646 84.288ZM69.169 86.256C68.401 86.256 67.7237 86.08 67.137 85.728C66.5503 85.3653 66.0917 84.8693 65.761 84.24C65.4303 83.6 65.265 82.8587 65.265 82.016C65.265 81.184 65.4303 80.4533 65.761 79.824C66.0917 79.184 66.5503 78.6827 67.137 78.32C67.7237 77.9573 68.4063 77.776 69.185 77.776C69.8357 77.776 70.401 77.9093 70.881 78.176C71.361 78.432 71.729 78.8 71.985 79.28V78.032H74.769V79.456H73.681V84.576H74.769V86H72.065V84.688C71.7877 85.1893 71.3983 85.5787 70.897 85.856C70.4063 86.1227 69.8303 86.256 69.169 86.256ZM69.537 84.704C70.305 84.704 70.9183 84.464 71.377 83.984C71.8357 83.4933 72.065 82.8373 72.065 82.016C72.065 81.1947 71.8357 80.544 71.377 80.064C70.9183 79.5733 70.305 79.328 69.537 79.328C68.769 79.328 68.1557 79.5733 67.697 80.064C67.2383 80.544 67.009 81.1947 67.009 82.016C67.009 82.8373 67.2383 83.4933 67.697 83.984C68.1663 84.464 68.7797 84.704 69.537 84.704ZM81.4401 86.256C80.7681 86.256 80.1708 86.1227 79.6481 85.856C79.1361 85.5893 78.7628 85.2213 78.5281 84.752V86H75.8401V84.576H76.9281V74.784H75.8081V73.36H78.6241V79.216C78.8801 78.7787 79.2588 78.432 79.7601 78.176C80.2721 77.9093 80.8535 77.776 81.5041 77.776C82.2721 77.776 82.9441 77.9573 83.5201 78.32C84.0961 78.6827 84.5441 79.184 84.8641 79.824C85.1841 80.464 85.3441 81.1947 85.3441 82.016C85.3441 82.8373 85.1841 83.568 84.8641 84.208C84.5441 84.848 84.0908 85.3493 83.5041 85.712C82.9175 86.0747 82.2295 86.256 81.4401 86.256ZM81.0721 84.704C81.8401 84.704 82.4535 84.464 82.9121 83.984C83.3708 83.4933 83.6001 82.8373 83.6001 82.016C83.6001 81.1947 83.3708 80.544 82.9121 80.064C82.4535 79.5733 81.8401 79.328 81.0721 79.328C80.3041 79.328 79.6908 79.5733 79.2321 80.064C78.7735 80.544 78.5441 81.1947 78.5441 82.016C78.5441 82.8373 78.7735 83.4933 79.2321 83.984C79.6908 84.464 80.3041 84.704 81.0721 84.704ZM86.4964 86V84.576H87.5844V74.784H86.4644V73.36H89.2804V84.576H90.3684V86H86.4964ZM95.8365 86.256C94.9085 86.256 94.1192 86.0747 93.4685 85.712C92.8178 85.3493 92.3165 84.848 91.9645 84.208C91.6232 83.568 91.4525 82.832 91.4525 82C91.4525 81.1253 91.6178 80.3733 91.9485 79.744C92.2898 79.1147 92.7592 78.6293 93.3565 78.288C93.9645 77.9467 94.6792 77.776 95.5005 77.776C96.6525 77.776 97.5592 78.1173 98.2205 78.8C98.8818 79.472 99.2125 80.4213 99.2125 81.648C99.2125 81.7547 99.2072 81.8933 99.1965 82.064C99.1858 82.224 99.1698 82.3573 99.1485 82.464H93.2125C93.2978 83.1467 93.5752 83.7013 94.0445 84.128C94.5138 84.544 95.1645 84.752 95.9965 84.752C96.5192 84.752 96.9618 84.6667 97.3245 84.496C97.6978 84.3253 97.9912 84.112 98.2045 83.856L99.1645 84.944C98.8338 85.328 98.3805 85.6427 97.8045 85.888C97.2285 86.1333 96.5725 86.256 95.8365 86.256ZM95.4845 79.232C94.8765 79.232 94.3698 79.4133 93.9645 79.776C93.5698 80.128 93.3245 80.592 93.2285 81.168H97.5325C97.4685 80.6027 97.2658 80.1387 96.9245 79.776C96.5832 79.4133 96.1032 79.232 95.4845 79.232ZM18.1923 93.84C19.771 93.84 20.9443 94.16 21.7123 94.8C22.4803 95.44 22.8643 96.3787 22.8643 97.616C22.8643 98.832 22.4803 99.7653 21.7123 100.416C20.9443 101.067 19.771 101.392 18.1923 101.392H16.3363V104.512H18.0803V106H13.0563V104.512H14.4483V95.328H13.0563V93.84H18.1923ZM17.9363 99.904C19.0136 99.904 19.787 99.7173 20.2563 99.344C20.7256 98.96 20.9603 98.384 20.9603 97.616C20.9603 96.8267 20.7256 96.2507 20.2563 95.888C19.787 95.5147 19.0136 95.328 17.9363 95.328H16.3363V99.904H17.9363ZM29.2057 97.904C29.5044 97.904 29.7657 97.9467 29.9897 98.032V99.584C29.9044 99.552 29.7924 99.5307 29.6537 99.52C29.515 99.4987 29.3764 99.488 29.2377 99.488C28.5337 99.488 27.947 99.6907 27.4777 100.096C27.0084 100.491 26.7737 101.083 26.7737 101.872V104.576H28.4537V106H23.9897V104.576H25.0777V99.456H23.9897V98.032H26.6777V99.44C26.859 98.9387 27.1844 98.56 27.6537 98.304C28.1337 98.0373 28.651 97.904 29.2057 97.904ZM35.0616 106.256C34.1976 106.256 33.4402 106.08 32.7896 105.728C32.1496 105.376 31.6482 104.88 31.2856 104.24C30.9229 103.6 30.7416 102.859 30.7416 102.016C30.7416 101.173 30.9229 100.432 31.2856 99.792C31.6482 99.152 32.1496 98.656 32.7896 98.304C33.4402 97.952 34.1976 97.776 35.0616 97.776C35.9256 97.776 36.6776 97.952 37.3176 98.304C37.9682 98.656 38.4749 99.152 38.8376 99.792C39.2002 100.432 39.3816 101.173 39.3816 102.016C39.3816 102.859 39.2002 103.6 38.8376 104.24C38.4749 104.88 37.9682 105.376 37.3176 105.728C36.6776 106.08 35.9256 106.256 35.0616 106.256ZM35.0616 104.704C35.8509 104.704 36.4749 104.459 36.9336 103.968C37.4029 103.477 37.6376 102.827 37.6376 102.016C37.6376 101.205 37.4029 100.555 36.9336 100.064C36.4749 99.5733 35.8509 99.328 35.0616 99.328C34.2722 99.328 33.6429 99.5733 33.1736 100.064C32.7149 100.555 32.4856 101.205 32.4856 102.016C32.4856 102.827 32.7149 103.477 33.1736 103.968C33.6429 104.459 34.2722 104.704 35.0616 104.704ZM43.6637 106L40.7677 99.456H39.8717V98.032H43.8717V99.456H42.6397L44.5917 104.256L46.6237 99.456H45.4077V98.032H49.2317V99.456H48.3197L45.4077 106H43.6637ZM54.0631 106.256C53.1351 106.256 52.3457 106.075 51.6951 105.712C51.0444 105.349 50.5431 104.848 50.1911 104.208C49.8497 103.568 49.6791 102.832 49.6791 102C49.6791 101.125 49.8444 100.373 50.1751 99.744C50.5164 99.1147 50.9857 98.6293 51.5831 98.288C52.1911 97.9467 52.9057 97.776 53.7271 97.776C54.8791 97.776 55.7857 98.1173 56.4471 98.8C57.1084 99.472 57.4391 100.421 57.4391 101.648C57.4391 101.755 57.4337 101.893 57.4231 102.064C57.4124 102.224 57.3964 102.357 57.3751 102.464H51.4391C51.5244 103.147 51.8017 103.701 52.2711 104.128C52.7404 104.544 53.3911 104.752 54.2231 104.752C54.7457 104.752 55.1884 104.667 55.5511 104.496C55.9244 104.325 56.2177 104.112 56.4311 103.856L57.3911 104.944C57.0604 105.328 56.6071 105.643 56.0311 105.888C55.4551 106.133 54.7991 106.256 54.0631 106.256ZM53.7111 99.232C53.1031 99.232 52.5964 99.4133 52.1911 99.776C51.7964 100.128 51.5511 100.592 51.4551 101.168H55.7591C55.6951 100.603 55.4924 100.139 55.1511 99.776C54.8097 99.4133 54.3297 99.232 53.7111 99.232ZM67.2856 104.576H68.3736V106H64.2616V104.576H65.5896V101.392C65.5896 100.016 64.9442 99.328 63.6536 99.328C62.9389 99.328 62.3896 99.52 62.0056 99.904C61.6322 100.277 61.4456 100.827 61.4456 101.552V104.576H62.7736V106H58.6616V104.576H59.7496V99.456H58.6616V98.032H61.3496V99.184C61.5949 98.736 61.9522 98.3893 62.4216 98.144C62.9016 97.8987 63.4776 97.776 64.1496 97.776C66.2402 97.776 67.2856 98.8693 67.2856 101.056V104.576ZM73.1612 106.256C72.3932 106.256 71.7159 106.08 71.1292 105.728C70.5425 105.365 70.0839 104.869 69.7532 104.24C69.4225 103.6 69.2572 102.859 69.2572 102.016C69.2572 101.184 69.4225 100.453 69.7532 99.824C70.0839 99.184 70.5425 98.6827 71.1292 98.32C71.7159 97.9573 72.3985 97.776 73.1772 97.776C73.8279 97.776 74.3932 97.9093 74.8732 98.176C75.3532 98.432 75.7212 98.8 75.9772 99.28V98.032H78.7612V99.456H77.6732V104.576H78.7612V106H76.0572V104.688C75.7799 105.189 75.3905 105.579 74.8892 105.856C74.3985 106.123 73.8225 106.256 73.1612 106.256ZM73.5292 104.704C74.2972 104.704 74.9105 104.464 75.3692 103.984C75.8279 103.493 76.0572 102.837 76.0572 102.016C76.0572 101.195 75.8279 100.544 75.3692 100.064C74.9105 99.5733 74.2972 99.328 73.5292 99.328C72.7612 99.328 72.1479 99.5733 71.6892 100.064C71.2305 100.544 71.0012 101.195 71.0012 102.016C71.0012 102.837 71.2305 103.493 71.6892 103.984C72.1585 104.464 72.7719 104.704 73.5292 104.704ZM88.5043 104.576H89.5923V106H85.4803V104.576H86.8083V101.392C86.8083 100.016 86.163 99.328 84.8723 99.328C84.1576 99.328 83.6083 99.52 83.2243 99.904C82.851 100.277 82.6643 100.827 82.6643 101.552V104.576H83.9923V106H79.8803V104.576H80.9683V99.456H79.8803V98.032H82.5683V99.184C82.8136 98.736 83.171 98.3893 83.6403 98.144C84.1203 97.8987 84.6963 97.776 85.3683 97.776C87.459 97.776 88.5043 98.8693 88.5043 101.056V104.576ZM94.7479 106.256C93.8626 106.256 93.0999 106.08 92.4599 105.728C91.8199 105.376 91.3293 104.88 90.9879 104.24C90.6466 103.589 90.4759 102.832 90.4759 101.968C90.4759 101.147 90.6253 100.421 90.9239 99.792C91.2226 99.1627 91.6439 98.672 92.1879 98.32C92.7426 97.9573 93.3933 97.776 94.1399 97.776C94.7266 97.776 95.2279 97.8933 95.6439 98.128C96.0599 98.3627 96.3693 98.6453 96.5719 98.976V98.032H97.8679V101.456H96.5079V101.216C96.5079 100.661 96.3319 100.208 95.9799 99.856C95.6386 99.4933 95.1533 99.312 94.5239 99.312C93.7879 99.312 93.2173 99.5573 92.8119 100.048C92.4173 100.539 92.2199 101.173 92.2199 101.952C92.2199 102.773 92.4599 103.44 92.9399 103.952C93.4199 104.453 94.0653 104.704 94.8759 104.704C95.4199 104.704 95.8573 104.608 96.1879 104.416C96.5293 104.213 96.8013 103.989 97.0039 103.744L98.0119 104.8C97.6813 105.237 97.2279 105.589 96.6519 105.856C96.0866 106.123 95.4519 106.256 94.7479 106.256ZM103.641 106.256C102.713 106.256 101.924 106.075 101.273 105.712C100.623 105.349 100.121 104.848 99.7692 104.208C99.4279 103.568 99.2572 102.832 99.2572 102C99.2572 101.125 99.4225 100.373 99.7532 99.744C100.095 99.1147 100.564 98.6293 101.161 98.288C101.769 97.9467 102.484 97.776 103.305 97.776C104.457 97.776 105.364 98.1173 106.025 98.8C106.687 99.472 107.017 100.421 107.017 101.648C107.017 101.755 107.012 101.893 107.001 102.064C106.991 102.224 106.975 102.357 106.953 102.464H101.017C101.103 103.147 101.38 103.701 101.849 104.128C102.319 104.544 102.969 104.752 103.801 104.752C104.324 104.752 104.767 104.667 105.129 104.496C105.503 104.325 105.796 104.112 106.009 103.856L106.969 104.944C106.639 105.328 106.185 105.643 105.609 105.888C105.033 106.133 104.377 106.256 103.641 106.256ZM103.289 99.232C102.681 99.232 102.175 99.4133 101.769 99.776C101.375 100.128 101.129 100.592 101.033 101.168H105.337C105.273 100.603 105.071 100.139 104.729 99.776C104.388 99.4133 103.908 99.232 103.289 99.232Z" fill="#7A7E70"/>
</svg>
