<svg width="120" height="110" viewBox="0 0 120 110" fill="none" xmlns="http://www.w3.org/2000/svg">
<g opacity="0.6">
<path d="M68.97 38.61H51.15C52.88 32.62 53.6 26.57 53.62 20.61H66.51C66.52 26.57 67.24 32.62 68.98 38.61H68.97ZM70.77 16.67V16.48C70.77 15.05 69.61 13.9 68.19 13.9H51.92C50.49 13.9 49.34 15.06 49.34 16.48V16.67C49.34 18.1 50.5 19.25 51.92 19.25H68.19C69.62 19.25 70.77 18.09 70.77 16.67ZM70.43 39.97H49.68C48.38 39.97 47.31 41.03 47.31 42.34V42.92H72.81V42.34C72.81 41.03 71.74 39.97 70.44 39.97H70.43ZM75.11 48.51V46.22C75.11 45.15 74.24 44.29 73.18 44.29H46.93C45.86 44.29 45 45.16 45 46.22V48.51C45 49.58 45.87 50.44 46.93 50.44H73.18C74.25 50.44 75.12 49.57 75.12 48.51H75.11ZM68.84 3.01H66.96C66.39 3.01 65.94 3.46 65.94 4.03V5.93C65.94 6.5 65.48 6.96 64.91 6.96H63.04C62.47 6.96 62.01 6.5 62.01 5.93V4.03C62.01 3.46 61.56 3.01 60.99 3.01H59.13C58.56 3.01 58.1 3.46 58.1 4.03V5.93C58.1 6.5 57.65 6.96 57.08 6.96H55.2C54.64 6.96 54.18 6.5 54.18 5.93V4.03C54.18 3.46 53.73 3.01 53.16 3.01H51.28C50.72 3.01 50.26 3.46 50.26 4.03V9.57C50.26 10.59 50.68 11.58 51.41 12.29L51.7 12.56C51.77 12.55 51.84 12.55 51.9 12.55H68.18C68.26 12.55 68.33 12.55 68.41 12.56L68.7 12.29C69.43 11.57 69.85 10.58 69.85 9.57V4.02C69.85 3.45 69.39 3 68.83 3L68.84 3.01Z" fill="#7A7E70"/>
</g>
<path d="M13.6845 73.84C15.2632 73.84 16.4365 74.16 17.2045 74.8C17.9725 75.44 18.3565 76.3787 18.3565 77.616C18.3565 78.832 17.9725 79.7653 17.2045 80.416C16.4365 81.0667 15.2632 81.392 13.6845 81.392H11.8285V84.512H13.5725V86H8.5485V84.512H9.9405V75.328H8.5485V73.84H13.6845ZM13.4285 79.904C14.5058 79.904 15.2792 79.7173 15.7485 79.344C16.2178 78.96 16.4525 78.384 16.4525 77.616C16.4525 76.8267 16.2178 76.2507 15.7485 75.888C15.2792 75.5147 14.5058 75.328 13.4285 75.328H11.8285V79.904H13.4285ZM24.6979 77.904C24.9965 77.904 25.2579 77.9467 25.4819 78.032V79.584C25.3965 79.552 25.2845 79.5307 25.1459 79.52C25.0072 79.4987 24.8685 79.488 24.7299 79.488C24.0259 79.488 23.4392 79.6907 22.9699 80.096C22.5005 80.4907 22.2659 81.0827 22.2659 81.872V84.576H23.9459V86H19.4819V84.576H20.5699V79.456H19.4819V78.032H22.1699V79.44C22.3512 78.9387 22.6765 78.56 23.1459 78.304C23.6259 78.0373 24.1432 77.904 24.6979 77.904ZM30.5538 86.256C29.6898 86.256 28.9324 86.08 28.2818 85.728C27.6418 85.376 27.1404 84.88 26.7778 84.24C26.4151 83.6 26.2338 82.8587 26.2338 82.016C26.2338 81.1733 26.4151 80.432 26.7778 79.792C27.1404 79.152 27.6418 78.656 28.2818 78.304C28.9324 77.952 29.6898 77.776 30.5538 77.776C31.4178 77.776 32.1698 77.952 32.8098 78.304C33.4604 78.656 33.9671 79.152 34.3298 79.792C34.6924 80.432 34.8738 81.1733 34.8738 82.016C34.8738 82.8587 34.6924 83.6 34.3298 84.24C33.9671 84.88 33.4604 85.376 32.8098 85.728C32.1698 86.08 31.4178 86.256 30.5538 86.256ZM30.5538 84.704C31.3431 84.704 31.9671 84.4587 32.4258 83.968C32.8951 83.4773 33.1298 82.8267 33.1298 82.016C33.1298 81.2053 32.8951 80.5547 32.4258 80.064C31.9671 79.5733 31.3431 79.328 30.5538 79.328C29.7644 79.328 29.1351 79.5733 28.6658 80.064C28.2071 80.5547 27.9778 81.2053 27.9778 82.016C27.9778 82.8267 28.2071 83.4773 28.6658 83.968C29.1351 84.4587 29.7644 84.704 30.5538 84.704ZM40.4276 86.256C39.5423 86.256 38.7796 86.08 38.1396 85.728C37.4996 85.376 37.009 84.88 36.6676 84.24C36.3263 83.5893 36.1556 82.832 36.1556 81.968C36.1556 81.1467 36.305 80.4213 36.6036 79.792C36.9023 79.1627 37.3236 78.672 37.8676 78.32C38.4223 77.9573 39.073 77.776 39.8196 77.776C40.4063 77.776 40.9076 77.8933 41.3236 78.128C41.7396 78.3627 42.049 78.6453 42.2516 78.976V78.032H43.5476V81.456H42.1876V81.216C42.1876 80.6613 42.0116 80.208 41.6596 79.856C41.3183 79.4933 40.833 79.312 40.2036 79.312C39.4676 79.312 38.897 79.5573 38.4916 80.048C38.097 80.5387 37.8996 81.1733 37.8996 81.952C37.8996 82.7733 38.1396 83.44 38.6196 83.952C39.0996 84.4533 39.745 84.704 40.5556 84.704C41.0996 84.704 41.537 84.608 41.8676 84.416C42.209 84.2133 42.481 83.9893 42.6836 83.744L43.6916 84.8C43.361 85.2373 42.9076 85.5893 42.3316 85.856C41.7663 86.1227 41.1316 86.256 40.4276 86.256ZM53.0649 84.576H54.1529V86H51.4489V85.008C51.2355 85.4027 50.8942 85.712 50.4249 85.936C49.9662 86.1493 49.4115 86.256 48.7609 86.256C46.7022 86.256 45.6729 85.1573 45.6729 82.96V79.456H44.5849V78.032H47.3689V82.64C47.3689 84.016 47.9875 84.704 49.2249 84.704C49.9075 84.704 50.4355 84.528 50.8089 84.176C51.1822 83.824 51.3689 83.3493 51.3689 82.752V79.456H50.1369V78.032H53.0649V84.576ZM60.3385 77.904C60.6372 77.904 60.8985 77.9467 61.1225 78.032V79.584C61.0372 79.552 60.9252 79.5307 60.7865 79.52C60.6478 79.4987 60.5092 79.488 60.3705 79.488C59.6665 79.488 59.0798 79.6907 58.6105 80.096C58.1412 80.4907 57.9065 81.0827 57.9065 81.872V84.576H59.5865V86H55.1225V84.576H56.2105V79.456H55.1225V78.032H57.8105V79.44C57.9918 78.9387 58.3172 78.56 58.7865 78.304C59.2665 78.0373 59.7838 77.904 60.3385 77.904ZM66.2584 86.256C65.3304 86.256 64.541 86.0747 63.8904 85.712C63.2397 85.3493 62.7384 84.848 62.3864 84.208C62.045 83.568 61.8744 82.832 61.8744 82C61.8744 81.1253 62.0397 80.3733 62.3704 79.744C62.7117 79.1147 63.181 78.6293 63.7784 78.288C64.3864 77.9467 65.101 77.776 65.9224 77.776C67.0744 77.776 67.981 78.1173 68.6424 78.8C69.3037 79.472 69.6344 80.4213 69.6344 81.648C69.6344 81.7547 69.629 81.8933 69.6184 82.064C69.6077 82.224 69.5917 82.3573 69.5704 82.464H63.6344C63.7197 83.1467 63.997 83.7013 64.4664 84.128C64.9357 84.544 65.5864 84.752 66.4184 84.752C66.941 84.752 67.3837 84.6667 67.7464 84.496C68.1197 84.3253 68.413 84.112 68.6264 83.856L69.5864 84.944C69.2557 85.328 68.8024 85.6427 68.2264 85.888C67.6504 86.1333 66.9944 86.256 66.2584 86.256ZM65.9064 79.232C65.2984 79.232 64.7917 79.4133 64.3864 79.776C63.9917 80.128 63.7464 80.592 63.6504 81.168H67.9544C67.8904 80.6027 67.6877 80.1387 67.3464 79.776C67.005 79.4133 66.525 79.232 65.9064 79.232ZM84.9369 84.576H86.0249V86H81.9929V84.576H83.2409V81.392C83.2409 80.016 82.6275 79.328 81.4009 79.328C80.7395 79.328 80.2222 79.5253 79.8489 79.92C79.4755 80.304 79.2889 80.8373 79.2889 81.52V84.576H80.5369V86H76.3449V84.576H77.5929V81.392C77.5929 80.016 76.9795 79.328 75.7529 79.328C75.0809 79.328 74.5582 79.5253 74.1849 79.92C73.8222 80.304 73.6409 80.848 73.6409 81.552V84.576H74.8889V86H70.8569V84.576H71.9449V79.456H70.8569V78.032H73.5449V79.184C73.7795 78.736 74.1315 78.3893 74.6009 78.144C75.0809 77.8987 75.6355 77.776 76.2649 77.776C77.5769 77.776 78.4515 78.2933 78.8889 79.328C79.1449 78.8373 79.5289 78.4587 80.0409 78.192C80.5529 77.9147 81.1502 77.776 81.8329 77.776C83.9022 77.776 84.9369 78.9013 84.9369 81.152V84.576ZM91.2896 86.256C90.3616 86.256 89.5723 86.0747 88.9216 85.712C88.271 85.3493 87.7696 84.848 87.4176 84.208C87.0763 83.568 86.9056 82.832 86.9056 82C86.9056 81.1253 87.071 80.3733 87.4016 79.744C87.743 79.1147 88.2123 78.6293 88.8096 78.288C89.4176 77.9467 90.1323 77.776 90.9536 77.776C92.1056 77.776 93.0123 78.1173 93.6736 78.8C94.335 79.472 94.6656 80.4213 94.6656 81.648C94.6656 81.7547 94.6603 81.8933 94.6496 82.064C94.639 82.224 94.623 82.3573 94.6016 82.464H88.6656C88.751 83.1467 89.0283 83.7013 89.4976 84.128C89.967 84.544 90.6176 84.752 91.4496 84.752C91.9723 84.752 92.415 84.6667 92.7776 84.496C93.151 84.3253 93.4443 84.112 93.6576 83.856L94.6176 84.944C94.287 85.328 93.8336 85.6427 93.2576 85.888C92.6816 86.1333 92.0256 86.256 91.2896 86.256ZM90.9376 79.232C90.3296 79.232 89.823 79.4133 89.4176 79.776C89.023 80.128 88.7776 80.592 88.6816 81.168H92.9856C92.9216 80.6027 92.719 80.1387 92.3776 79.776C92.0363 79.4133 91.5563 79.232 90.9376 79.232ZM104.512 84.576H105.6V86H101.488V84.576H102.816V81.392C102.816 80.016 102.171 79.328 100.88 79.328C100.165 79.328 99.6161 79.52 99.2321 79.904C98.8588 80.2773 98.6721 80.8267 98.6721 81.552V84.576H100V86H95.8881V84.576H96.9761V79.456H95.8881V78.032H98.5761V79.184C98.8215 78.736 99.1788 78.3893 99.6481 78.144C100.128 77.8987 100.704 77.776 101.376 77.776C103.467 77.776 104.512 78.8693 104.512 81.056V84.576ZM111.371 84.288L111.915 85.536C111.712 85.7067 111.446 85.8507 111.115 85.968C110.784 86.0853 110.411 86.144 109.995 86.144C109.11 86.144 108.422 85.8987 107.931 85.408C107.451 84.9173 107.211 84.1813 107.211 83.2V79.456H105.867V78.032H107.211V76.032L108.907 75.616V78.032H111.275V79.456H108.907V83.088C108.907 84.1227 109.36 84.64 110.267 84.64C110.48 84.64 110.683 84.608 110.875 84.544C111.078 84.4693 111.243 84.384 111.371 84.288ZM36.7908 95.328H35.3988V104.512H36.7908V106H32.1188V104.512H33.5108V95.328H32.1188V93.84H36.7908V95.328ZM46.7074 104.576H47.7954V106H43.6834V104.576H45.0114V101.392C45.0114 100.016 44.3661 99.328 43.0754 99.328C42.3608 99.328 41.8114 99.52 41.4274 99.904C41.0541 100.277 40.8674 100.827 40.8674 101.552V104.576H42.1954V106H38.0834V104.576H39.1714V99.456H38.0834V98.032H40.7714V99.184C41.0168 98.736 41.3741 98.3893 41.8434 98.144C42.3234 97.8987 42.8994 97.776 43.5714 97.776C45.6621 97.776 46.7074 98.8693 46.7074 101.056V104.576ZM52.8684 106.256C52.3138 106.256 51.8018 106.171 51.3324 106C50.8631 105.829 50.5004 105.568 50.2444 105.216V106H48.9164V103.232H50.2604V103.36C50.2604 103.829 50.4524 104.213 50.8364 104.512C51.2311 104.8 51.7751 104.944 52.4684 104.944C52.9698 104.944 53.3698 104.869 53.6684 104.72C53.9778 104.56 54.1324 104.293 54.1324 103.92C54.1324 103.568 53.9778 103.317 53.6684 103.168C53.3591 103.019 52.8311 102.875 52.0844 102.736L51.4764 102.624C50.5378 102.443 49.8711 102.139 49.4764 101.712C49.0818 101.285 48.8844 100.779 48.8844 100.192C48.8844 99.424 49.1618 98.832 49.7164 98.416C50.2818 97.9893 50.9964 97.776 51.8604 97.776C52.4044 97.776 52.8791 97.8613 53.2844 98.032C53.6898 98.2027 54.0044 98.432 54.2284 98.72V98.032H55.5244V100.752H54.2124V100.592C54.2124 100.123 54.0364 99.7547 53.6844 99.488C53.3431 99.2213 52.8631 99.088 52.2444 99.088C51.7751 99.088 51.3858 99.1733 51.0764 99.344C50.7671 99.504 50.6124 99.7707 50.6124 100.144C50.6124 100.453 50.7511 100.688 51.0284 100.848C51.3058 100.997 51.8178 101.136 52.5644 101.264L53.3324 101.392C54.2391 101.541 54.8844 101.819 55.2684 102.224C55.6631 102.629 55.8604 103.163 55.8604 103.824C55.8604 104.635 55.5884 105.243 55.0444 105.648C54.5004 106.053 53.7751 106.256 52.8684 106.256ZM58.8419 96.32C58.4473 96.32 58.1486 96.2133 57.9459 96C57.7433 95.776 57.6419 95.4987 57.6419 95.168C57.6419 94.8373 57.7433 94.5653 57.9459 94.352C58.1486 94.128 58.4473 94.016 58.8419 94.016C59.2366 94.016 59.5353 94.128 59.7379 94.352C59.9406 94.5653 60.0419 94.8373 60.0419 95.168C60.0419 95.4987 59.9406 95.776 59.7379 96C59.5353 96.2133 59.2366 96.32 58.8419 96.32ZM57.1459 106V104.576H58.2339V99.456H57.1459V98.032H59.9299V104.576H61.0179V106H57.1459ZM65.9897 109.92C64.5497 109.92 63.387 109.6 62.5017 108.96L63.2057 107.616C63.579 107.861 63.9737 108.048 64.3897 108.176C64.8057 108.304 65.3124 108.368 65.9097 108.368C66.827 108.368 67.5364 108.128 68.0377 107.648C68.539 107.168 68.7897 106.485 68.7897 105.6V104.832C68.523 105.269 68.1444 105.616 67.6537 105.872C67.1737 106.128 66.6084 106.256 65.9577 106.256C65.179 106.256 64.4964 106.075 63.9097 105.712C63.3337 105.349 62.8804 104.848 62.5497 104.208C62.2297 103.568 62.0697 102.837 62.0697 102.016C62.0697 101.173 62.235 100.437 62.5657 99.808C62.907 99.168 63.371 98.672 63.9577 98.32C64.555 97.9573 65.227 97.776 65.9737 97.776C66.635 97.776 67.2164 97.9147 67.7177 98.192C68.2297 98.4587 68.6137 98.8267 68.8697 99.296V98.032H71.5737V99.456H70.4857V105.536C70.4857 106.955 70.107 108.037 69.3497 108.784C68.5924 109.541 67.4724 109.92 65.9897 109.92ZM66.3417 104.704C67.1097 104.704 67.723 104.464 68.1817 103.984C68.6404 103.493 68.8697 102.837 68.8697 102.016C68.8697 101.195 68.6404 100.544 68.1817 100.064C67.723 99.5733 67.1097 99.328 66.3417 99.328C65.563 99.328 64.9444 99.5787 64.4857 100.08C64.0377 100.581 63.8137 101.227 63.8137 102.016C63.8137 102.805 64.0377 103.451 64.4857 103.952C64.9444 104.453 65.563 104.704 66.3417 104.704ZM72.3167 106V104.576H73.4047V94.784H72.2847V93.36H75.1007V99.024C75.346 98.608 75.7034 98.2987 76.1727 98.096C76.6527 97.8827 77.1914 97.776 77.7887 97.776C79.89 97.776 80.9407 98.8693 80.9407 101.056V104.576H82.0287V106H77.9167V104.576H79.2447V101.392C79.2447 100.016 78.5994 99.328 77.3087 99.328C76.5834 99.328 76.034 99.52 75.6607 99.904C75.2874 100.277 75.1007 100.827 75.1007 101.552V104.576H76.4287V106H72.3167ZM87.8006 104.288L88.3446 105.536C88.1419 105.707 87.8752 105.851 87.5446 105.968C87.2139 106.085 86.8406 106.144 86.4246 106.144C85.5392 106.144 84.8512 105.899 84.3606 105.408C83.8806 104.917 83.6406 104.181 83.6406 103.2V99.456H82.2966V98.032H83.6406V96.032L85.3366 95.616V98.032H87.7046V99.456H85.3366V103.088C85.3366 104.123 85.7899 104.64 86.6966 104.64C86.9099 104.64 87.1126 104.608 87.3046 104.544C87.5072 104.469 87.6726 104.384 87.8006 104.288Z" fill="#7A7E70"/>
</svg>
