<svg width="120" height="110" viewBox="0 0 120 110" fill="none" xmlns="http://www.w3.org/2000/svg">
<g opacity="0.6">
<path d="M38.73 11H28L43.55 26.54L28 42.08H38.73L54.2 26.54L38.73 11Z" fill="#7A7E70"/>
<path d="M57.8607 11H47.1406L62.6807 26.54L47.1406 42.08H57.8607L73.3406 26.54L57.8607 11Z" fill="#7A7E70"/>
<path d="M76.9993 11H66.2793L81.8193 26.54L66.2793 42.08H76.9993L92.4793 26.54L76.9993 11Z" fill="#7A7E70"/>
</g>
<path d="M20.9548 86V84.512H22.3468V75.328H20.9548V73.84H26.0428C29.1894 73.84 30.7628 75.0773 30.7628 77.552C30.7628 78.4053 30.5548 79.1093 30.1388 79.664C29.7228 80.2187 29.1521 80.6293 28.4268 80.896L30.5068 84.512H31.8508V86H29.2428L26.6188 81.232C26.4481 81.2427 26.2774 81.248 26.1068 81.248H24.2348V84.512H25.9468V86H20.9548ZM24.2348 79.76H25.9788C26.9388 79.76 27.6588 79.584 28.1388 79.232C28.6188 78.88 28.8588 78.32 28.8588 77.552C28.8588 76.7627 28.6134 76.1973 28.1228 75.856C27.6321 75.504 26.8801 75.328 25.8668 75.328H24.2348V79.76ZM36.7896 86.256C35.8616 86.256 35.0723 86.0747 34.4216 85.712C33.771 85.3493 33.2696 84.848 32.9176 84.208C32.5763 83.568 32.4056 82.832 32.4056 82C32.4056 81.1253 32.571 80.3733 32.9016 79.744C33.243 79.1147 33.7123 78.6293 34.3096 78.288C34.9176 77.9467 35.6323 77.776 36.4536 77.776C37.6056 77.776 38.5123 78.1173 39.1736 78.8C39.835 79.472 40.1656 80.4213 40.1656 81.648C40.1656 81.7547 40.1603 81.8933 40.1496 82.064C40.139 82.224 40.123 82.3573 40.1016 82.464H34.1656C34.251 83.1467 34.5283 83.7013 34.9976 84.128C35.467 84.544 36.1176 84.752 36.9496 84.752C37.4723 84.752 37.915 84.6667 38.2776 84.496C38.651 84.3253 38.9443 84.112 39.1576 83.856L40.1176 84.944C39.787 85.328 39.3336 85.6427 38.7576 85.888C38.1816 86.1333 37.5256 86.256 36.7896 86.256ZM36.4376 79.232C35.8296 79.232 35.323 79.4133 34.9176 79.776C34.523 80.128 34.2776 80.592 34.1816 81.168H38.4856C38.4216 80.6027 38.219 80.1387 37.8776 79.776C37.5363 79.4133 37.0563 79.232 36.4376 79.232ZM45.3721 86.256C44.6041 86.256 43.9268 86.08 43.3401 85.728C42.7535 85.3653 42.2948 84.8693 41.9641 84.24C41.6335 83.6 41.4681 82.8587 41.4681 82.016C41.4681 81.184 41.6335 80.4533 41.9641 79.824C42.2948 79.184 42.7535 78.6827 43.3401 78.32C43.9268 77.9573 44.6095 77.776 45.3881 77.776C46.0388 77.776 46.6041 77.9093 47.0841 78.176C47.5641 78.432 47.9321 78.8 48.1881 79.28V78.032H50.9721V79.456H49.8841V84.576H50.9721V86H48.2681V84.688C47.9908 85.1893 47.6015 85.5787 47.1001 85.856C46.6095 86.1227 46.0335 86.256 45.3721 86.256ZM45.7401 84.704C46.5081 84.704 47.1215 84.464 47.5801 83.984C48.0388 83.4933 48.2681 82.8373 48.2681 82.016C48.2681 81.1947 48.0388 80.544 47.5801 80.064C47.1215 79.5733 46.5081 79.328 45.7401 79.328C44.9721 79.328 44.3588 79.5733 43.9001 80.064C43.4415 80.544 43.2121 81.1947 43.2121 82.016C43.2121 82.8373 43.4415 83.4933 43.9001 83.984C44.3695 84.464 44.9828 84.704 45.7401 84.704ZM52.0433 86V84.576H53.1313V74.784H52.0113V73.36H54.8273V84.576H55.9153V86H52.0433ZM56.9551 82.272V80.72H62.2991V82.272H56.9551ZM69.0896 84.288L69.6336 85.536C69.431 85.7067 69.1643 85.8507 68.8336 85.968C68.503 86.0853 68.1296 86.144 67.7136 86.144C66.8283 86.144 66.1403 85.8987 65.6496 85.408C65.1696 84.9173 64.9296 84.1813 64.9296 83.2V79.456H63.5856V78.032H64.9296V76.032L66.6256 75.616V78.032H68.9936V79.456H66.6256V83.088C66.6256 84.1227 67.079 84.64 67.9856 84.64C68.199 84.64 68.4016 84.608 68.5936 84.544C68.7963 84.4693 68.9616 84.384 69.0896 84.288ZM72.1623 76.32C71.7676 76.32 71.4689 76.2133 71.2663 76C71.0636 75.776 70.9622 75.4987 70.9622 75.168C70.9622 74.8373 71.0636 74.5653 71.2663 74.352C71.4689 74.128 71.7676 74.016 72.1623 74.016C72.5569 74.016 72.8556 74.128 73.0583 74.352C73.2609 74.5653 73.3623 74.8373 73.3623 75.168C73.3623 75.4987 73.2609 75.776 73.0583 76C72.8556 76.2133 72.5569 76.32 72.1623 76.32ZM70.4663 86V84.576H71.5543V79.456H70.4663V78.032H73.2503V84.576H74.3383V86H70.4663ZM89.39 84.576H90.478V86H86.446V84.576H87.694V81.392C87.694 80.016 87.0807 79.328 85.854 79.328C85.1927 79.328 84.6753 79.5253 84.302 79.92C83.9287 80.304 83.742 80.8373 83.742 81.52V84.576H84.99V86H80.798V84.576H82.046V81.392C82.046 80.016 81.4327 79.328 80.206 79.328C79.534 79.328 79.0113 79.5253 78.638 79.92C78.2753 80.304 78.094 80.848 78.094 81.552V84.576H79.342V86H75.31V84.576H76.398V79.456H75.31V78.032H77.998V79.184C78.2327 78.736 78.5847 78.3893 79.054 78.144C79.534 77.8987 80.0887 77.776 80.718 77.776C82.03 77.776 82.9047 78.2933 83.342 79.328C83.598 78.8373 83.982 78.4587 84.494 78.192C85.006 77.9147 85.6033 77.776 86.286 77.776C88.3553 77.776 89.39 78.9013 89.39 81.152V84.576ZM95.7428 86.256C94.8148 86.256 94.0254 86.0747 93.3748 85.712C92.7241 85.3493 92.2228 84.848 91.8708 84.208C91.5294 83.568 91.3588 82.832 91.3588 82C91.3588 81.1253 91.5241 80.3733 91.8548 79.744C92.1961 79.1147 92.6654 78.6293 93.2628 78.288C93.8708 77.9467 94.5854 77.776 95.4068 77.776C96.5588 77.776 97.4654 78.1173 98.1268 78.8C98.7881 79.472 99.1188 80.4213 99.1188 81.648C99.1188 81.7547 99.1134 81.8933 99.1028 82.064C99.0921 82.224 99.0761 82.3573 99.0548 82.464H93.1188C93.2041 83.1467 93.4814 83.7013 93.9508 84.128C94.4201 84.544 95.0708 84.752 95.9028 84.752C96.4254 84.752 96.8681 84.6667 97.2308 84.496C97.6041 84.3253 97.8974 84.112 98.1108 83.856L99.0708 84.944C98.7401 85.328 98.2868 85.6427 97.7108 85.888C97.1348 86.1333 96.4788 86.256 95.7428 86.256ZM95.3908 79.232C94.7828 79.232 94.2761 79.4133 93.8708 79.776C93.4761 80.128 93.2308 80.592 93.1348 81.168H97.4388C97.3748 80.6027 97.1721 80.1387 96.8308 79.776C96.4894 79.4133 96.0094 79.232 95.3908 79.232ZM18.8298 106V104.512H20.2218V95.328H18.8298V93.84H23.8218C25.9978 93.84 27.6351 94.3733 28.7338 95.44C29.8324 96.496 30.3818 97.9893 30.3818 99.92C30.3818 101.851 29.8324 103.349 28.7338 104.416C27.6351 105.472 25.9978 106 23.8218 106H18.8298ZM22.1098 104.512H23.6778C25.2351 104.512 26.4191 104.149 27.2298 103.424C28.0404 102.688 28.4458 101.52 28.4458 99.92C28.4458 98.32 28.0404 97.1573 27.2298 96.432C26.4191 95.696 25.2351 95.328 23.6778 95.328H22.1098V104.512ZM35.7315 106.256C34.9635 106.256 34.2862 106.08 33.6995 105.728C33.1128 105.365 32.6542 104.869 32.3235 104.24C31.9928 103.6 31.8275 102.859 31.8275 102.016C31.8275 101.184 31.9928 100.453 32.3235 99.824C32.6542 99.184 33.1128 98.6827 33.6995 98.32C34.2862 97.9573 34.9688 97.776 35.7475 97.776C36.3982 97.776 36.9635 97.9093 37.4435 98.176C37.9235 98.432 38.2915 98.8 38.5475 99.28V98.032H41.3315V99.456H40.2435V104.576H41.3315V106H38.6275V104.688C38.3502 105.189 37.9608 105.579 37.4595 105.856C36.9688 106.123 36.3928 106.256 35.7315 106.256ZM36.0995 104.704C36.8675 104.704 37.4808 104.464 37.9395 103.984C38.3982 103.493 38.6275 102.837 38.6275 102.016C38.6275 101.195 38.3982 100.544 37.9395 100.064C37.4808 99.5733 36.8675 99.328 36.0995 99.328C35.3315 99.328 34.7182 99.5733 34.2595 100.064C33.8008 100.544 33.5715 101.195 33.5715 102.016C33.5715 102.837 33.8008 103.493 34.2595 103.984C34.7288 104.464 35.3422 104.704 36.0995 104.704ZM47.7146 104.288L48.2586 105.536C48.056 105.707 47.7893 105.851 47.4586 105.968C47.128 106.085 46.7546 106.144 46.3386 106.144C45.4533 106.144 44.7653 105.899 44.2746 105.408C43.7946 104.917 43.5546 104.181 43.5546 103.2V99.456H42.2106V98.032H43.5546V96.032L45.2506 95.616V98.032H47.6186V99.456H45.2506V103.088C45.2506 104.123 45.704 104.64 46.6106 104.64C46.824 104.64 47.0266 104.608 47.2186 104.544C47.4213 104.469 47.5866 104.384 47.7146 104.288ZM52.919 106.256C52.151 106.256 51.4737 106.08 50.887 105.728C50.3003 105.365 49.8417 104.869 49.511 104.24C49.1803 103.6 49.015 102.859 49.015 102.016C49.015 101.184 49.1803 100.453 49.511 99.824C49.8417 99.184 50.3003 98.6827 50.887 98.32C51.4737 97.9573 52.1563 97.776 52.935 97.776C53.5857 97.776 54.151 97.9093 54.631 98.176C55.111 98.432 55.479 98.8 55.735 99.28V98.032H58.519V99.456H57.431V104.576H58.519V106H55.815V104.688C55.5377 105.189 55.1483 105.579 54.647 105.856C54.1563 106.123 53.5803 106.256 52.919 106.256ZM53.287 104.704C54.055 104.704 54.6683 104.464 55.127 103.984C55.5857 103.493 55.815 102.837 55.815 102.016C55.815 101.195 55.5857 100.544 55.127 100.064C54.6683 99.5733 54.055 99.328 53.287 99.328C52.519 99.328 51.9057 99.5733 51.447 100.064C50.9883 100.544 50.759 101.195 50.759 102.016C50.759 102.837 50.9883 103.493 51.447 103.984C51.9163 104.464 52.5297 104.704 53.287 104.704ZM63.3454 106V104.512H64.7374V95.328H63.3454V93.84H72.9454V97.456H71.3934V95.328H66.6254V99.408H70.9134V100.896H66.6254V104.512H68.4334V106H63.3454ZM74.0745 106V104.576H75.1625V94.784H74.0425V93.36H76.8585V104.576H77.9465V106H74.0745ZM83.3506 106.256C82.4866 106.256 81.7293 106.08 81.0786 105.728C80.4386 105.376 79.9373 104.88 79.5746 104.24C79.212 103.6 79.0306 102.859 79.0306 102.016C79.0306 101.173 79.212 100.432 79.5746 99.792C79.9373 99.152 80.4386 98.656 81.0786 98.304C81.7293 97.952 82.4866 97.776 83.3506 97.776C84.2146 97.776 84.9666 97.952 85.6066 98.304C86.2573 98.656 86.764 99.152 87.1266 99.792C87.4893 100.432 87.6706 101.173 87.6706 102.016C87.6706 102.859 87.4893 103.6 87.1266 104.24C86.764 104.88 86.2573 105.376 85.6066 105.728C84.9666 106.08 84.2146 106.256 83.3506 106.256ZM83.3506 104.704C84.14 104.704 84.764 104.459 85.2226 103.968C85.692 103.477 85.9266 102.827 85.9266 102.016C85.9266 101.205 85.692 100.555 85.2226 100.064C84.764 99.5733 84.14 99.328 83.3506 99.328C82.5613 99.328 81.932 99.5733 81.4626 100.064C81.004 100.555 80.7746 101.205 80.7746 102.016C80.7746 102.827 81.004 103.477 81.4626 103.968C81.932 104.459 82.5613 104.704 83.3506 104.704ZM91.6621 106L89.1821 99.456H88.3021V98.032H92.1901V99.456H90.9261L92.4781 103.808L94.3981 98.032H95.7581L97.6621 103.808L99.2621 99.456H97.9981V98.032H101.678V99.456H100.798L98.3181 106H96.7821L94.9901 100.704L93.1981 106H91.6621Z" fill="#7A7E70"/>
</svg>
