<svg width="120" height="110" viewBox="0 0 120 110" fill="none" xmlns="http://www.w3.org/2000/svg">
<g opacity="0.6">
<path d="M59.8068 15.2173C53.3868 15.2173 48.2168 20.4373 48.2168 26.8073C48.2168 33.1773 53.4368 38.3973 59.8068 38.3973C66.1768 38.3973 71.3968 33.1773 71.3968 26.8073C71.3968 20.4373 66.2268 15.2173 59.8068 15.2173ZM65.5968 24.9273L59.4368 31.0873C59.1268 31.3973 58.7068 31.6073 58.2368 31.6073C57.7668 31.6073 57.3468 31.4473 57.0368 31.0873L53.9568 28.0073C53.2768 27.3273 53.2768 26.2873 53.9568 25.6073C54.6368 24.9273 55.6768 24.9273 56.3568 25.6073L58.2368 27.4873L63.1968 22.5273C63.8768 21.8473 64.9168 21.8473 65.5968 22.5273C66.2768 23.2073 66.2768 24.2473 65.5968 24.9273Z" fill="#7A7E70"/>
<path d="M84.1875 27.7975C84.7575 27.2775 84.7575 26.3875 84.1875 25.8675L80.1175 22.1075C79.7475 21.7375 79.5975 21.2175 79.7475 20.7475L81.4175 15.4775C81.6275 14.7475 81.2075 13.9675 80.4275 13.8075L75.0475 12.6075C74.5275 12.5075 74.1575 12.0875 74.0575 11.6175L72.8575 6.1875C72.6975 5.4075 71.9175 4.9875 71.1875 5.1975L65.9175 6.8675C65.4475 7.0275 64.8775 6.8675 64.5575 6.4975L60.8475 2.4275C60.3275 1.8575 59.4375 1.8575 58.9175 2.4275L55.1075 6.4975C54.7375 6.8675 54.2175 7.0175 53.7475 6.8675L48.4775 5.1975C47.7475 4.9875 46.9675 5.4075 46.8075 6.1875L45.6075 11.5675C45.5075 12.0875 45.0875 12.4575 44.6175 12.5575L39.1875 13.7575C38.4075 13.9175 37.9875 14.6975 38.1975 15.4275L39.8675 20.6975C40.0275 21.1675 39.8675 21.7375 39.4975 22.0575L35.4275 25.7675C34.8575 26.2875 34.8575 27.1775 35.4275 27.6975L39.4975 31.4075C39.8675 31.7775 40.0175 32.2975 39.8675 32.7675L38.1975 38.1475C37.9875 38.8775 38.4075 39.6575 39.1875 39.8175L44.5675 41.0175C45.0875 41.1175 45.4575 41.5375 45.5575 42.0075L46.7575 47.4375C46.9175 48.2175 47.6975 48.6375 48.4275 48.4275L53.6975 46.7575C54.1675 46.5975 54.7375 46.7575 55.0575 47.1275L58.7675 51.1975C59.2875 51.7675 60.1775 51.7675 60.6975 51.1975L64.4075 47.1275C64.7775 46.7575 65.2975 46.6075 65.7675 46.7575L71.0375 48.4275C71.7675 48.6375 72.5475 48.2175 72.7075 47.4375L73.9075 42.0575C74.0075 41.5375 74.4275 41.1675 74.8975 41.0675L80.4275 39.8675C81.2075 39.7075 81.6275 38.9275 81.4175 38.1975L79.7475 32.9275C79.5875 32.4575 79.7475 31.8875 80.1175 31.5675L84.1875 27.8075V27.7975ZM59.8075 41.8475C51.5075 41.8475 44.7675 35.1075 44.7675 26.8075C44.7675 18.5075 51.5075 11.7675 59.8075 11.7675C68.1075 11.7675 74.8475 18.5075 74.8475 26.8075C74.8475 35.1075 68.1075 41.8475 59.8075 41.8475Z" fill="#7A7E70"/>
</g>
<path d="M23.237 86.256C22.3837 86.256 21.6157 86.1387 20.933 85.904C20.261 85.6587 19.7437 85.296 19.381 84.816V86H17.989V81.92H19.445V82.176C19.445 82.656 19.589 83.0827 19.877 83.456C20.165 83.8293 20.5597 84.1227 21.061 84.336C21.573 84.5493 22.1543 84.656 22.805 84.656C23.6797 84.656 24.3623 84.5013 24.853 84.192C25.3437 83.8827 25.589 83.4453 25.589 82.88C25.589 82.304 25.3757 81.8667 24.949 81.568C24.5223 81.2587 23.797 81.0133 22.773 80.832L21.765 80.656C20.549 80.4427 19.6423 80.032 19.045 79.424C18.4583 78.816 18.165 78.0213 18.165 77.04C18.165 76.3573 18.341 75.76 18.693 75.248C19.045 74.7253 19.525 74.32 20.133 74.032C20.7517 73.7333 21.4663 73.584 22.277 73.584C23.0237 73.584 23.685 73.712 24.261 73.968C24.837 74.2133 25.285 74.5493 25.605 74.976V73.84H26.997V77.84H25.541V77.632C25.541 77.152 25.4183 76.7307 25.173 76.368C24.9277 76.0053 24.5863 75.7227 24.149 75.52C23.7117 75.3067 23.205 75.2 22.629 75.2C21.8397 75.2 21.2157 75.36 20.757 75.68C20.2983 75.9893 20.069 76.4107 20.069 76.944C20.069 77.4773 20.2717 77.9093 20.677 78.24C21.0823 78.5707 21.7917 78.8267 22.805 79.008L23.733 79.168C25.0343 79.392 25.9837 79.792 26.581 80.368C27.189 80.944 27.493 81.7333 27.493 82.736C27.493 83.4613 27.317 84.0853 26.965 84.608C26.613 85.1307 26.117 85.536 25.477 85.824C24.8477 86.112 24.101 86.256 23.237 86.256ZM33.9959 84.288L34.5399 85.536C34.3372 85.7067 34.0705 85.8507 33.7399 85.968C33.4092 86.0853 33.0359 86.144 32.6199 86.144C31.7345 86.144 31.0465 85.8987 30.5559 85.408C30.0759 84.9173 29.8359 84.1813 29.8359 83.2V79.456H28.4919V78.032H29.8359V76.032L31.5319 75.616V78.032H33.8999V79.456H31.5319V83.088C31.5319 84.1227 31.9852 84.64 32.8919 84.64C33.1052 84.64 33.3079 84.608 33.4999 84.544C33.7025 84.4693 33.8679 84.384 33.9959 84.288ZM39.2003 86.256C38.4323 86.256 37.7549 86.08 37.1683 85.728C36.5816 85.3653 36.1229 84.8693 35.7923 84.24C35.4616 83.6 35.2963 82.8587 35.2963 82.016C35.2963 81.184 35.4616 80.4533 35.7923 79.824C36.1229 79.184 36.5816 78.6827 37.1683 78.32C37.7549 77.9573 38.4376 77.776 39.2163 77.776C39.8669 77.776 40.4323 77.9093 40.9123 78.176C41.3923 78.432 41.7603 78.8 42.0163 79.28V78.032H44.8003V79.456H43.7123V84.576H44.8003V86H42.0963V84.688C41.8189 85.1893 41.4296 85.5787 40.9283 85.856C40.4376 86.1227 39.8616 86.256 39.2003 86.256ZM39.5683 84.704C40.3363 84.704 40.9496 84.464 41.4083 83.984C41.8669 83.4933 42.0963 82.8373 42.0963 82.016C42.0963 81.1947 41.8669 80.544 41.4083 80.064C40.9496 79.5733 40.3363 79.328 39.5683 79.328C38.8003 79.328 38.1869 79.5733 37.7283 80.064C37.2696 80.544 37.0403 81.1947 37.0403 82.016C37.0403 82.8373 37.2696 83.4933 37.7283 83.984C38.1976 84.464 38.8109 84.704 39.5683 84.704ZM54.5434 84.576H55.6314V86H51.5194V84.576H52.8474V81.392C52.8474 80.016 52.202 79.328 50.9114 79.328C50.1967 79.328 49.6474 79.52 49.2634 79.904C48.89 80.2773 48.7034 80.8267 48.7034 81.552V84.576H50.0314V86H45.9194V84.576H47.0074V79.456H45.9194V78.032H48.6074V79.184C48.8527 78.736 49.21 78.3893 49.6794 78.144C50.1594 77.8987 50.7354 77.776 51.4074 77.776C53.498 77.776 54.5434 78.8693 54.5434 81.056V84.576ZM60.419 86.256C59.651 86.256 58.9737 86.08 58.387 85.728C57.8003 85.3653 57.3417 84.8693 57.011 84.24C56.6803 83.6 56.515 82.8587 56.515 82.016C56.515 81.184 56.6803 80.4533 57.011 79.824C57.3417 79.184 57.8003 78.6827 58.387 78.32C58.9737 77.9573 59.651 77.776 60.419 77.776C61.0697 77.776 61.635 77.904 62.115 78.16C62.6057 78.416 62.979 78.7787 63.235 79.248V74.784H61.859V73.36H64.931V84.576H66.019V86H63.315V84.688C63.0377 85.1893 62.6483 85.5787 62.147 85.856C61.6563 86.1227 61.0803 86.256 60.419 86.256ZM60.787 84.704C61.555 84.704 62.1683 84.464 62.627 83.984C63.0857 83.4933 63.315 82.8373 63.315 82.016C63.315 81.1947 63.0857 80.544 62.627 80.064C62.1683 79.5733 61.555 79.328 60.787 79.328C60.019 79.328 59.4057 79.5733 58.947 80.064C58.4883 80.544 58.259 81.1947 58.259 82.016C58.259 82.8373 58.4883 83.4933 58.947 83.984C59.4163 84.464 60.0297 84.704 60.787 84.704ZM71.0128 86.256C70.2448 86.256 69.5674 86.08 68.9808 85.728C68.3941 85.3653 67.9354 84.8693 67.6048 84.24C67.2741 83.6 67.1088 82.8587 67.1088 82.016C67.1088 81.184 67.2741 80.4533 67.6048 79.824C67.9354 79.184 68.3941 78.6827 68.9808 78.32C69.5674 77.9573 70.2501 77.776 71.0288 77.776C71.6794 77.776 72.2448 77.9093 72.7248 78.176C73.2048 78.432 73.5728 78.8 73.8288 79.28V78.032H76.6128V79.456H75.5248V84.576H76.6128V86H73.9088V84.688C73.6314 85.1893 73.2421 85.5787 72.7408 85.856C72.2501 86.1227 71.6741 86.256 71.0128 86.256ZM71.3808 84.704C72.1488 84.704 72.7621 84.464 73.2208 83.984C73.6794 83.4933 73.9088 82.8373 73.9088 82.016C73.9088 81.1947 73.6794 80.544 73.2208 80.064C72.7621 79.5733 72.1488 79.328 71.3808 79.328C70.6128 79.328 69.9994 79.5733 69.5408 80.064C69.0821 80.544 68.8528 81.1947 68.8528 82.016C68.8528 82.8373 69.0821 83.4933 69.5408 83.984C70.0101 84.464 70.6234 84.704 71.3808 84.704ZM82.9479 77.904C83.2465 77.904 83.5079 77.9467 83.7319 78.032V79.584C83.6465 79.552 83.5345 79.5307 83.3959 79.52C83.2572 79.4987 83.1185 79.488 82.9799 79.488C82.2759 79.488 81.6892 79.6907 81.2199 80.096C80.7505 80.4907 80.5159 81.0827 80.5159 81.872V84.576H82.1959V86H77.7319V84.576H78.8199V79.456H77.7319V78.032H80.4199V79.44C80.6012 78.9387 80.9265 78.56 81.3959 78.304C81.8759 78.0373 82.3932 77.904 82.9479 77.904ZM88.3878 86.256C87.6198 86.256 86.9424 86.08 86.3558 85.728C85.7691 85.3653 85.3104 84.8693 84.9798 84.24C84.6491 83.6 84.4838 82.8587 84.4838 82.016C84.4838 81.184 84.6491 80.4533 84.9798 79.824C85.3104 79.184 85.7691 78.6827 86.3558 78.32C86.9424 77.9573 87.6198 77.776 88.3878 77.776C89.0384 77.776 89.6038 77.904 90.0838 78.16C90.5744 78.416 90.9478 78.7787 91.2038 79.248V74.784H89.8278V73.36H92.8998V84.576H93.9878V86H91.2838V84.688C91.0064 85.1893 90.6171 85.5787 90.1158 85.856C89.6251 86.1227 89.0491 86.256 88.3878 86.256ZM88.7558 84.704C89.5238 84.704 90.1371 84.464 90.5958 83.984C91.0544 83.4933 91.2838 82.8373 91.2838 82.016C91.2838 81.1947 91.0544 80.544 90.5958 80.064C90.1371 79.5733 89.5238 79.328 88.7558 79.328C87.9878 79.328 87.3744 79.5733 86.9158 80.064C86.4571 80.544 86.2278 81.1947 86.2278 82.016C86.2278 82.8373 86.4571 83.4933 86.9158 83.984C87.3851 84.464 87.9984 84.704 88.7558 84.704ZM99.1575 86.256C98.6028 86.256 98.0908 86.1707 97.6215 86C97.1522 85.8293 96.7895 85.568 96.5335 85.216V86H95.2055V83.232H96.5495V83.36C96.5495 83.8293 96.7415 84.2133 97.1255 84.512C97.5202 84.8 98.0642 84.944 98.7575 84.944C99.2588 84.944 99.6588 84.8693 99.9575 84.72C100.267 84.56 100.422 84.2933 100.422 83.92C100.422 83.568 100.267 83.3173 99.9575 83.168C99.6482 83.0187 99.1202 82.8747 98.3735 82.736L97.7655 82.624C96.8268 82.4427 96.1602 82.1387 95.7655 81.712C95.3708 81.2853 95.1735 80.7787 95.1735 80.192C95.1735 79.424 95.4508 78.832 96.0055 78.416C96.5708 77.9893 97.2855 77.776 98.1495 77.776C98.6935 77.776 99.1682 77.8613 99.5735 78.032C99.9788 78.2027 100.294 78.432 100.518 78.72V78.032H101.814V80.752H100.502V80.592C100.502 80.1227 100.326 79.7547 99.9735 79.488C99.6322 79.2213 99.1522 79.088 98.5335 79.088C98.0642 79.088 97.6748 79.1733 97.3655 79.344C97.0562 79.504 96.9015 79.7707 96.9015 80.144C96.9015 80.4533 97.0402 80.688 97.3175 80.848C97.5948 80.9973 98.1068 81.136 98.8535 81.264L99.6215 81.392C100.528 81.5413 101.174 81.8187 101.558 82.224C101.952 82.6293 102.15 83.1627 102.15 83.824C102.15 84.6347 101.878 85.2427 101.334 85.648C100.79 86.0533 100.064 86.256 99.1575 86.256ZM17.4108 106V104.512H18.5308L22.5468 93.84H24.8188L28.8668 104.512H29.9708V106H25.1708V104.512H26.8828L26.0028 102.128H21.2188L20.3388 104.512H21.9548V106H17.4108ZM21.7148 100.752H25.4908L23.6028 95.68L21.7148 100.752ZM30.6683 106V104.576H31.7563V94.784H30.6363V93.36H33.4523V104.576H34.5403V106H30.6683ZM37.2404 96.32C36.8457 96.32 36.547 96.2133 36.3444 96C36.1417 95.776 36.0404 95.4987 36.0404 95.168C36.0404 94.8373 36.1417 94.5653 36.3444 94.352C36.547 94.128 36.8457 94.016 37.2404 94.016C37.635 94.016 37.9337 94.128 38.1364 94.352C38.339 94.5653 38.4404 94.8373 38.4404 95.168C38.4404 95.4987 38.339 95.776 38.1364 96C37.9337 96.2133 37.635 96.32 37.2404 96.32ZM35.5444 106V104.576H36.6324V99.456H35.5444V98.032H38.3284V104.576H39.4164V106H35.5444ZM44.3881 109.92C42.9481 109.92 41.7855 109.6 40.9001 108.96L41.6041 107.616C41.9775 107.861 42.3721 108.048 42.7881 108.176C43.2041 108.304 43.7108 108.368 44.3081 108.368C45.2255 108.368 45.9348 108.128 46.4361 107.648C46.9375 107.168 47.1881 106.485 47.1881 105.6V104.832C46.9215 105.269 46.5428 105.616 46.0521 105.872C45.5721 106.128 45.0068 106.256 44.3561 106.256C43.5775 106.256 42.8948 106.075 42.3081 105.712C41.7321 105.349 41.2788 104.848 40.9481 104.208C40.6281 103.568 40.4681 102.837 40.4681 102.016C40.4681 101.173 40.6335 100.437 40.9641 99.808C41.3055 99.168 41.7695 98.672 42.3561 98.32C42.9535 97.9573 43.6255 97.776 44.3721 97.776C45.0335 97.776 45.6148 97.9147 46.1161 98.192C46.6281 98.4587 47.0121 98.8267 47.2681 99.296V98.032H49.9721V99.456H48.8841V105.536C48.8841 106.955 48.5055 108.037 47.7481 108.784C46.9908 109.541 45.8708 109.92 44.3881 109.92ZM44.7401 104.704C45.5081 104.704 46.1215 104.464 46.5801 103.984C47.0388 103.493 47.2681 102.837 47.2681 102.016C47.2681 101.195 47.0388 100.544 46.5801 100.064C46.1215 99.5733 45.5081 99.328 44.7401 99.328C43.9615 99.328 43.3428 99.5787 42.8841 100.08C42.4361 100.581 42.2121 101.227 42.2121 102.016C42.2121 102.805 42.4361 103.451 42.8841 103.952C43.3428 104.453 43.9615 104.704 44.7401 104.704ZM59.4496 104.576H60.5376V106H56.4256V104.576H57.7536V101.392C57.7536 100.016 57.1083 99.328 55.8176 99.328C55.103 99.328 54.5536 99.52 54.1696 99.904C53.7963 100.277 53.6096 100.827 53.6096 101.552V104.576H54.9376V106H50.8256V104.576H51.9136V99.456H50.8256V98.032H53.5136V99.184C53.759 98.736 54.1163 98.3893 54.5856 98.144C55.0656 97.8987 55.6416 97.776 56.3136 97.776C58.4043 97.776 59.4496 98.8693 59.4496 101.056V104.576ZM75.5306 104.576H76.6186V106H72.5866V104.576H73.8346V101.392C73.8346 100.016 73.2213 99.328 71.9946 99.328C71.3333 99.328 70.816 99.5253 70.4426 99.92C70.0693 100.304 69.8826 100.837 69.8826 101.52V104.576H71.1306V106H66.9386V104.576H68.1866V101.392C68.1866 100.016 67.5733 99.328 66.3466 99.328C65.6746 99.328 65.152 99.5253 64.7786 99.92C64.416 100.304 64.2346 100.848 64.2346 101.552V104.576H65.4826V106H61.4506V104.576H62.5386V99.456H61.4506V98.032H64.1386V99.184C64.3733 98.736 64.7253 98.3893 65.1946 98.144C65.6746 97.8987 66.2293 97.776 66.8586 97.776C68.1706 97.776 69.0453 98.2933 69.4826 99.328C69.7386 98.8373 70.1226 98.4587 70.6346 98.192C71.1466 97.9147 71.744 97.776 72.4266 97.776C74.496 97.776 75.5306 98.9013 75.5306 101.152V104.576ZM81.8834 106.256C80.9554 106.256 80.166 106.075 79.5154 105.712C78.8647 105.349 78.3634 104.848 78.0114 104.208C77.67 103.568 77.4994 102.832 77.4994 102C77.4994 101.125 77.6647 100.373 77.9954 99.744C78.3367 99.1147 78.806 98.6293 79.4034 98.288C80.0114 97.9467 80.726 97.776 81.5474 97.776C82.6994 97.776 83.606 98.1173 84.2674 98.8C84.9287 99.472 85.2594 100.421 85.2594 101.648C85.2594 101.755 85.254 101.893 85.2434 102.064C85.2327 102.224 85.2167 102.357 85.1954 102.464H79.2594C79.3447 103.147 79.622 103.701 80.0914 104.128C80.5607 104.544 81.2114 104.752 82.0434 104.752C82.566 104.752 83.0087 104.667 83.3714 104.496C83.7447 104.325 84.038 104.112 84.2514 103.856L85.2114 104.944C84.8807 105.328 84.4274 105.643 83.8514 105.888C83.2754 106.133 82.6194 106.256 81.8834 106.256ZM81.5314 99.232C80.9234 99.232 80.4167 99.4133 80.0114 99.776C79.6167 100.128 79.3714 100.592 79.2754 101.168H83.5794C83.5154 100.603 83.3127 100.139 82.9714 99.776C82.63 99.4133 82.15 99.232 81.5314 99.232ZM95.1059 104.576H96.1939V106H92.0819V104.576H93.4099V101.392C93.4099 100.016 92.7645 99.328 91.4739 99.328C90.7592 99.328 90.2099 99.52 89.8259 99.904C89.4525 100.277 89.2659 100.827 89.2659 101.552V104.576H90.5939V106H86.4819V104.576H87.5699V99.456H86.4819V98.032H89.1699V99.184C89.4152 98.736 89.7725 98.3893 90.2419 98.144C90.7219 97.8987 91.2979 97.776 91.9699 97.776C94.0605 97.776 95.1059 98.8693 95.1059 101.056V104.576ZM101.965 104.288L102.509 105.536C102.306 105.707 102.039 105.851 101.709 105.968C101.378 106.085 101.005 106.144 100.589 106.144C99.7033 106.144 99.0153 105.899 98.5246 105.408C98.0446 104.917 97.8046 104.181 97.8046 103.2V99.456H96.4606V98.032H97.8046V96.032L99.5006 95.616V98.032H101.869V99.456H99.5006V103.088C99.5006 104.123 99.954 104.64 100.861 104.64C101.074 104.64 101.277 104.608 101.469 104.544C101.671 104.469 101.837 104.384 101.965 104.288Z" fill="#7A7E70"/>
</svg>
