<svg width="120" height="110" viewBox="0 0 120 110" fill="none" xmlns="http://www.w3.org/2000/svg">
<g opacity="0.6">
<path d="M60.4 2C56.64 6.42 49.6 14.75 49.27 15.14H57.31C57.31 17.35 57.31 19.69 57.31 21.87C55.15 24.48 50.9399 27.15 47.0099 27.15H40V33.3H47.0099C50.9099 33.3 54.49 31.93 57.31 29.64C57.31 31.92 57.31 33.96 57.31 36.42C57.31 42.18 52.7699 46.72 47.0099 46.72H40V52.87H47.0099C52.5399 52.87 57.42 50.11 60.4 45.91C63.38 50.11 68.26 52.87 73.79 52.87H80.8V46.72H73.79C68.03 46.72 63.49 42.18 63.49 36.42C63.49 34.27 63.49 31.92 63.49 29.64C66.31 31.93 69.88 33.3 73.79 33.3H80.8V27.15H73.79C69.87 27.15 65.65 24.48 63.49 21.87C63.49 19.61 63.49 17.37 63.49 15.14H71.53C71.2 14.75 64.16 6.42 60.4 2Z" fill="#7A7E70"/>
</g>
<path d="M16.0886 86.256C15.2352 86.256 14.4672 86.1387 13.7846 85.904C13.1126 85.6587 12.5952 85.296 12.2326 84.816V86H10.8406V81.92H12.2966V82.176C12.2966 82.656 12.4406 83.0827 12.7286 83.456C13.0166 83.8293 13.4112 84.1227 13.9126 84.336C14.4246 84.5493 15.0059 84.656 15.6566 84.656C16.5312 84.656 17.2139 84.5013 17.7046 84.192C18.1952 83.8827 18.4406 83.4453 18.4406 82.88C18.4406 82.304 18.2272 81.8667 17.8006 81.568C17.3739 81.2587 16.6486 81.0133 15.6246 80.832L14.6166 80.656C13.4006 80.4427 12.4939 80.032 11.8966 79.424C11.3099 78.816 11.0166 78.0213 11.0166 77.04C11.0166 76.3573 11.1926 75.76 11.5446 75.248C11.8966 74.7253 12.3766 74.32 12.9846 74.032C13.6032 73.7333 14.3179 73.584 15.1286 73.584C15.8752 73.584 16.5366 73.712 17.1126 73.968C17.6886 74.2133 18.1366 74.5493 18.4566 74.976V73.84H19.8486V77.84H18.3926V77.632C18.3926 77.152 18.2699 76.7307 18.0246 76.368C17.7792 76.0053 17.4379 75.7227 17.0006 75.52C16.5632 75.3067 16.0566 75.2 15.4806 75.2C14.6912 75.2 14.0672 75.36 13.6086 75.68C13.1499 75.9893 12.9206 76.4107 12.9206 76.944C12.9206 77.4773 13.1232 77.9093 13.5286 78.24C13.9339 78.5707 14.6432 78.8267 15.6566 79.008L16.5846 79.168C17.8859 79.392 18.8352 79.792 19.4326 80.368C20.0406 80.944 20.3446 81.7333 20.3446 82.736C20.3446 83.4613 20.1686 84.0853 19.8166 84.608C19.4646 85.1307 18.9686 85.536 18.3286 85.824C17.6992 86.112 16.9526 86.256 16.0886 86.256ZM26.8474 84.288L27.3914 85.536C27.1888 85.7067 26.9221 85.8507 26.5914 85.968C26.2608 86.0853 25.8874 86.144 25.4714 86.144C24.5861 86.144 23.8981 85.8987 23.4074 85.408C22.9274 84.9173 22.6874 84.1813 22.6874 83.2V79.456H21.3434V78.032H22.6874V76.032L24.3834 75.616V78.032H26.7514V79.456H24.3834V83.088C24.3834 84.1227 24.8368 84.64 25.7434 84.64C25.9568 84.64 26.1594 84.608 26.3514 84.544C26.5541 84.4693 26.7194 84.384 26.8474 84.288ZM33.4401 77.904C33.7387 77.904 34.0001 77.9467 34.2241 78.032V79.584C34.1387 79.552 34.0267 79.5307 33.8881 79.52C33.7494 79.4987 33.6107 79.488 33.4721 79.488C32.7681 79.488 32.1814 79.6907 31.7121 80.096C31.2427 80.4907 31.0081 81.0827 31.0081 81.872V84.576H32.6881V86H28.2241V84.576H29.3121V79.456H28.2241V78.032H30.9121V79.44C31.0934 78.9387 31.4187 78.56 31.8881 78.304C32.3681 78.0373 32.8854 77.904 33.4401 77.904ZM39.3599 86.256C38.4319 86.256 37.6426 86.0747 36.9919 85.712C36.3413 85.3493 35.8399 84.848 35.4879 84.208C35.1466 83.568 34.9759 82.832 34.9759 82C34.9759 81.1253 35.1413 80.3733 35.4719 79.744C35.8133 79.1147 36.2826 78.6293 36.8799 78.288C37.4879 77.9467 38.2026 77.776 39.0239 77.776C40.1759 77.776 41.0826 78.1173 41.7439 78.8C42.4053 79.472 42.7359 80.4213 42.7359 81.648C42.7359 81.7547 42.7306 81.8933 42.7199 82.064C42.7093 82.224 42.6933 82.3573 42.6719 82.464H36.7359C36.8213 83.1467 37.0986 83.7013 37.5679 84.128C38.0373 84.544 38.6879 84.752 39.5199 84.752C40.0426 84.752 40.4853 84.6667 40.8479 84.496C41.2213 84.3253 41.5146 84.112 41.7279 83.856L42.6879 84.944C42.3573 85.328 41.9039 85.6427 41.3279 85.888C40.7519 86.1333 40.0959 86.256 39.3599 86.256ZM39.0079 79.232C38.3999 79.232 37.8933 79.4133 37.4879 79.776C37.0933 80.128 36.8479 80.592 36.7519 81.168H41.0559C40.9919 80.6027 40.7893 80.1387 40.4479 79.776C40.1066 79.4133 39.6266 79.232 39.0079 79.232ZM47.9424 86.256C47.1744 86.256 46.4971 86.08 45.9104 85.728C45.3238 85.3653 44.8651 84.8693 44.5344 84.24C44.2038 83.6 44.0384 82.8587 44.0384 82.016C44.0384 81.184 44.2038 80.4533 44.5344 79.824C44.8651 79.184 45.3238 78.6827 45.9104 78.32C46.4971 77.9573 47.1798 77.776 47.9584 77.776C48.6091 77.776 49.1744 77.9093 49.6544 78.176C50.1344 78.432 50.5024 78.8 50.7584 79.28V78.032H53.5424V79.456H52.4544V84.576H53.5424V86H50.8384V84.688C50.5611 85.1893 50.1718 85.5787 49.6704 85.856C49.1798 86.1227 48.6038 86.256 47.9424 86.256ZM48.3104 84.704C49.0784 84.704 49.6918 84.464 50.1504 83.984C50.6091 83.4933 50.8384 82.8373 50.8384 82.016C50.8384 81.1947 50.6091 80.544 50.1504 80.064C49.6918 79.5733 49.0784 79.328 48.3104 79.328C47.5424 79.328 46.9291 79.5733 46.4704 80.064C46.0118 80.544 45.7824 81.1947 45.7824 82.016C45.7824 82.8373 46.0118 83.4933 46.4704 83.984C46.9398 84.464 47.5531 84.704 48.3104 84.704ZM68.7416 84.576H69.8296V86H65.7976V84.576H67.0456V81.392C67.0456 80.016 66.4322 79.328 65.2056 79.328C64.5442 79.328 64.0269 79.5253 63.6536 79.92C63.2802 80.304 63.0936 80.8373 63.0936 81.52V84.576H64.3416V86H60.1496V84.576H61.3976V81.392C61.3976 80.016 60.7842 79.328 59.5576 79.328C58.8856 79.328 58.3629 79.5253 57.9896 79.92C57.6269 80.304 57.4456 80.848 57.4456 81.552V84.576H58.6936V86H54.6616V84.576H55.7496V79.456H54.6616V78.032H57.3496V79.184C57.5842 78.736 57.9362 78.3893 58.4056 78.144C58.8856 77.8987 59.4402 77.776 60.0696 77.776C61.3816 77.776 62.2562 78.2933 62.6936 79.328C62.9496 78.8373 63.3336 78.4587 63.8456 78.192C64.3576 77.9147 64.9549 77.776 65.6376 77.776C67.7069 77.776 68.7416 78.9013 68.7416 81.152V84.576ZM70.6917 86V84.576H71.7797V74.784H70.6597V73.36H73.4757V84.576H74.5637V86H70.6917ZM77.2638 76.32C76.8691 76.32 76.5705 76.2133 76.3678 76C76.1651 75.776 76.0638 75.4987 76.0638 75.168C76.0638 74.8373 76.1651 74.5653 76.3678 74.352C76.5705 74.128 76.8691 74.016 77.2638 74.016C77.6585 74.016 77.9571 74.128 78.1598 74.352C78.3625 74.5653 78.4638 74.8373 78.4638 75.168C78.4638 75.4987 78.3625 75.776 78.1598 76C77.9571 76.2133 77.6585 76.32 77.2638 76.32ZM75.5678 86V84.576H76.6558V79.456H75.5678V78.032H78.3518V84.576H79.4398V86H75.5678ZM89.0356 84.576H90.1236V86H86.0116V84.576H87.3396V81.392C87.3396 80.016 86.6942 79.328 85.4036 79.328C84.6889 79.328 84.1396 79.52 83.7556 79.904C83.3822 80.2773 83.1956 80.8267 83.1956 81.552V84.576H84.5236V86H80.4116V84.576H81.4996V79.456H80.4116V78.032H83.0996V79.184C83.3449 78.736 83.7022 78.3893 84.1716 78.144C84.6516 77.8987 85.2276 77.776 85.8996 77.776C87.9902 77.776 89.0356 78.8693 89.0356 81.056V84.576ZM95.3912 86.256C94.4632 86.256 93.6739 86.0747 93.0232 85.712C92.3725 85.3493 91.8712 84.848 91.5192 84.208C91.1779 83.568 91.0072 82.832 91.0072 82C91.0072 81.1253 91.1725 80.3733 91.5032 79.744C91.8445 79.1147 92.3139 78.6293 92.9112 78.288C93.5192 77.9467 94.2339 77.776 95.0552 77.776C96.2072 77.776 97.1139 78.1173 97.7752 78.8C98.4365 79.472 98.7672 80.4213 98.7672 81.648C98.7672 81.7547 98.7619 81.8933 98.7512 82.064C98.7405 82.224 98.7245 82.3573 98.7032 82.464H92.7672C92.8525 83.1467 93.1299 83.7013 93.5992 84.128C94.0685 84.544 94.7192 84.752 95.5512 84.752C96.0739 84.752 96.5165 84.6667 96.8792 84.496C97.2525 84.3253 97.5459 84.112 97.7592 83.856L98.7192 84.944C98.3885 85.328 97.9352 85.6427 97.3592 85.888C96.7832 86.1333 96.1272 86.256 95.3912 86.256ZM95.0392 79.232C94.4312 79.232 93.9245 79.4133 93.5192 79.776C93.1245 80.128 92.8792 80.592 92.7832 81.168H97.0872C97.0232 80.6027 96.8205 80.1387 96.4792 79.776C96.1379 79.4133 95.6579 79.232 95.0392 79.232ZM103.974 86.256C103.206 86.256 102.528 86.08 101.942 85.728C101.355 85.3653 100.896 84.8693 100.566 84.24C100.235 83.6 100.07 82.8587 100.07 82.016C100.07 81.184 100.235 80.4533 100.566 79.824C100.896 79.184 101.355 78.6827 101.942 78.32C102.528 77.9573 103.206 77.776 103.974 77.776C104.624 77.776 105.19 77.904 105.67 78.16C106.16 78.416 106.534 78.7787 106.79 79.248V74.784H105.414V73.36H108.486V84.576H109.574V86H106.87V84.688C106.592 85.1893 106.203 85.5787 105.702 85.856C105.211 86.1227 104.635 86.256 103.974 86.256ZM104.342 84.704C105.11 84.704 105.723 84.464 106.182 83.984C106.64 83.4933 106.87 82.8373 106.87 82.016C106.87 81.1947 106.64 80.544 106.182 80.064C105.723 79.5733 105.11 79.328 104.342 79.328C103.574 79.328 102.96 79.5733 102.502 80.064C102.043 80.544 101.814 81.1947 101.814 82.016C101.814 82.8373 102.043 83.4933 102.502 83.984C102.971 84.464 103.584 84.704 104.342 84.704ZM20.3532 106V104.512H21.7452V95.328H20.3532V93.84H25.4412C28.5879 93.84 30.1612 95.0773 30.1612 97.552C30.1612 98.4053 29.9532 99.1093 29.5372 99.664C29.1212 100.219 28.5505 100.629 27.8252 100.896L29.9052 104.512H31.2492V106H28.6412L26.0172 101.232C25.8465 101.243 25.6759 101.248 25.5052 101.248H23.6332V104.512H25.3452V106H20.3532ZM23.6332 99.76H25.3772C26.3372 99.76 27.0572 99.584 27.5372 99.232C28.0172 98.88 28.2572 98.32 28.2572 97.552C28.2572 96.7627 28.0119 96.1973 27.5212 95.856C27.0305 95.504 26.2785 95.328 25.2652 95.328H23.6332V99.76ZM36.1881 106.256C35.2601 106.256 34.4707 106.075 33.8201 105.712C33.1694 105.349 32.6681 104.848 32.3161 104.208C31.9747 103.568 31.8041 102.832 31.8041 102C31.8041 101.125 31.9694 100.373 32.3001 99.744C32.6414 99.1147 33.1107 98.6293 33.7081 98.288C34.3161 97.9467 35.0307 97.776 35.8521 97.776C37.0041 97.776 37.9107 98.1173 38.5721 98.8C39.2334 99.472 39.5641 100.421 39.5641 101.648C39.5641 101.755 39.5587 101.893 39.5481 102.064C39.5374 102.224 39.5214 102.357 39.5001 102.464H33.5641C33.6494 103.147 33.9267 103.701 34.3961 104.128C34.8654 104.544 35.5161 104.752 36.3481 104.752C36.8707 104.752 37.3134 104.667 37.6761 104.496C38.0494 104.325 38.3427 104.112 38.5561 103.856L39.5161 104.944C39.1854 105.328 38.7321 105.643 38.1561 105.888C37.5801 106.133 36.9241 106.256 36.1881 106.256ZM35.8361 99.232C35.2281 99.232 34.7214 99.4133 34.3161 99.776C33.9214 100.128 33.6761 100.592 33.5801 101.168H37.8841C37.8201 100.603 37.6174 100.139 37.2761 99.776C36.9347 99.4133 36.4547 99.232 35.8361 99.232ZM40.7226 109.76V108.336H41.8106V99.456H40.7226V98.032H43.4106V99.264C43.6666 98.784 44.0506 98.416 44.5626 98.16C45.0852 97.904 45.6612 97.776 46.2906 97.776C47.0479 97.776 47.7252 97.952 48.3226 98.304C48.9199 98.656 49.3839 99.152 49.7146 99.792C50.0559 100.432 50.2266 101.173 50.2266 102.016C50.2266 102.837 50.0666 103.568 49.7466 104.208C49.4266 104.848 48.9732 105.349 48.3866 105.712C47.8106 106.075 47.1279 106.256 46.3386 106.256C45.6239 106.256 45.0212 106.112 44.5306 105.824C44.0506 105.536 43.7092 105.195 43.5066 104.8V108.336H44.8826V109.76H40.7226ZM45.9546 104.704C46.7226 104.704 47.3359 104.464 47.7946 103.984C48.2532 103.493 48.4826 102.837 48.4826 102.016C48.4826 101.195 48.2532 100.544 47.7946 100.064C47.3359 99.5733 46.7226 99.328 45.9546 99.328C45.1866 99.328 44.5732 99.5733 44.1146 100.064C43.6559 100.544 43.4266 101.195 43.4266 102.016C43.4266 102.837 43.6559 103.493 44.1146 103.984C44.5732 104.464 45.1866 104.704 45.9546 104.704ZM55.8272 106.256C54.9632 106.256 54.2059 106.08 53.5552 105.728C52.9152 105.376 52.4139 104.88 52.0512 104.24C51.6885 103.6 51.5072 102.859 51.5072 102.016C51.5072 101.173 51.6885 100.432 52.0512 99.792C52.4139 99.152 52.9152 98.656 53.5552 98.304C54.2059 97.952 54.9632 97.776 55.8272 97.776C56.6912 97.776 57.4432 97.952 58.0832 98.304C58.7339 98.656 59.2405 99.152 59.6032 99.792C59.9659 100.432 60.1472 101.173 60.1472 102.016C60.1472 102.859 59.9659 103.6 59.6032 104.24C59.2405 104.88 58.7339 105.376 58.0832 105.728C57.4432 106.08 56.6912 106.256 55.8272 106.256ZM55.8272 104.704C56.6165 104.704 57.2405 104.459 57.6992 103.968C58.1685 103.477 58.4032 102.827 58.4032 102.016C58.4032 101.205 58.1685 100.555 57.6992 100.064C57.2405 99.5733 56.6165 99.328 55.8272 99.328C55.0379 99.328 54.4085 99.5733 53.9392 100.064C53.4805 100.555 53.2512 101.205 53.2512 102.016C53.2512 102.827 53.4805 103.477 53.9392 103.968C54.4085 104.459 55.0379 104.704 55.8272 104.704ZM66.5651 97.904C66.8637 97.904 67.1251 97.9467 67.3491 98.032V99.584C67.2637 99.552 67.1517 99.5307 67.0131 99.52C66.8744 99.4987 66.7357 99.488 66.5971 99.488C65.8931 99.488 65.3064 99.6907 64.8371 100.096C64.3677 100.491 64.1331 101.083 64.1331 101.872V104.576H65.8131V106H61.3491V104.576H62.4371V99.456H61.3491V98.032H64.0371V99.44C64.2184 98.9387 64.5437 98.56 65.0131 98.304C65.4931 98.0373 66.0104 97.904 66.5651 97.904ZM73.7693 104.288L74.3133 105.536C74.1106 105.707 73.844 105.851 73.5133 105.968C73.1826 106.085 72.8093 106.144 72.3933 106.144C71.508 106.144 70.82 105.899 70.3293 105.408C69.8493 104.917 69.6093 104.181 69.6093 103.2V99.456H68.2653V98.032H69.6093V96.032L71.3053 95.616V98.032H73.6733V99.456H71.3053V103.088C71.3053 104.123 71.7586 104.64 72.6653 104.64C72.8786 104.64 73.0813 104.608 73.2733 104.544C73.476 104.469 73.6413 104.384 73.7693 104.288ZM76.8419 96.32C76.4473 96.32 76.1486 96.2133 75.9459 96C75.7433 95.776 75.6419 95.4987 75.6419 95.168C75.6419 94.8373 75.7433 94.5653 75.9459 94.352C76.1486 94.128 76.4473 94.016 76.8419 94.016C77.2366 94.016 77.5353 94.128 77.7379 94.352C77.9406 94.5653 78.0419 94.8373 78.0419 95.168C78.0419 95.4987 77.9406 95.776 77.7379 96C77.5353 96.2133 77.2366 96.32 76.8419 96.32ZM75.1459 106V104.576H76.2339V99.456H75.1459V98.032H77.9299V104.576H79.0179V106H75.1459ZM88.6137 104.576H89.7017V106H85.5897V104.576H86.9177V101.392C86.9177 100.016 86.2724 99.328 84.9817 99.328C84.267 99.328 83.7177 99.52 83.3337 99.904C82.9604 100.277 82.7737 100.827 82.7737 101.552V104.576H84.1017V106H79.9897V104.576H81.0777V99.456H79.9897V98.032H82.6777V99.184C82.923 98.736 83.2804 98.3893 83.7497 98.144C84.2297 97.8987 84.8057 97.776 85.4777 97.776C87.5684 97.776 88.6137 98.8693 88.6137 101.056V104.576ZM94.5053 109.92C93.0653 109.92 91.9026 109.6 91.0173 108.96L91.7213 107.616C92.0946 107.861 92.4893 108.048 92.9053 108.176C93.3213 108.304 93.828 108.368 94.4253 108.368C95.3426 108.368 96.052 108.128 96.5533 107.648C97.0546 107.168 97.3053 106.485 97.3053 105.6V104.832C97.0386 105.269 96.66 105.616 96.1693 105.872C95.6893 106.128 95.124 106.256 94.4733 106.256C93.6946 106.256 93.012 106.075 92.4253 105.712C91.8493 105.349 91.396 104.848 91.0653 104.208C90.7453 103.568 90.5853 102.837 90.5853 102.016C90.5853 101.173 90.7506 100.437 91.0813 99.808C91.4226 99.168 91.8866 98.672 92.4733 98.32C93.0706 97.9573 93.7426 97.776 94.4893 97.776C95.1506 97.776 95.732 97.9147 96.2333 98.192C96.7453 98.4587 97.1293 98.8267 97.3853 99.296V98.032H100.089V99.456H99.0013V105.536C99.0013 106.955 98.6226 108.037 97.8653 108.784C97.108 109.541 95.988 109.92 94.5053 109.92ZM94.8573 104.704C95.6253 104.704 96.2386 104.464 96.6973 103.984C97.156 103.493 97.3853 102.837 97.3853 102.016C97.3853 101.195 97.156 100.544 96.6973 100.064C96.2386 99.5733 95.6253 99.328 94.8573 99.328C94.0786 99.328 93.46 99.5787 93.0013 100.08C92.5533 100.581 92.3293 101.227 92.3293 102.016C92.3293 102.805 92.5533 103.451 93.0013 103.952C93.46 104.453 94.0786 104.704 94.8573 104.704Z" fill="#7A7E70"/>
</svg>
